<svg width="13" height="21" viewBox="0 0 13 21" fill="none" xmlns="http://www.w3.org/2000/svg">
<path d="M10.0994 1.59147C7.91223 0.136178 5.0862 0.136178 2.9003 1.59147C0.0832549 3.46402 -0.818558 7.11312 0.80291 10.0787L6.49986 20.5L12.1968 10.0787C13.8183 7.11312 12.9177 3.46402 10.0994 1.59147ZM11.0718 9.46693L6.50114 17.8288L1.92921 9.46693C0.628448 7.08624 1.35067 4.15902 3.61226 2.65638C4.4897 2.07272 5.49414 1.77962 6.49986 1.77962C7.50558 1.77962 8.51001 2.07144 9.38745 2.6551C11.649 4.15902 12.3725 7.08624 11.0718 9.46693Z" fill="currentColor"/>
<path d="M6.63997 4.07143C4.97046 4.07143 3.61111 5.40492 3.61111 7.04267C3.61111 8.68041 4.97046 10.0139 6.63997 10.0139C8.30947 10.0139 9.66883 8.68041 9.66883 7.04267C9.66883 5.40492 8.31069 4.07143 6.63997 4.07143ZM6.63997 8.82541C5.63802 8.82541 4.82265 8.02555 4.82265 7.04267C4.82265 6.05978 5.63802 5.25992 6.63997 5.25992C7.64191 5.25992 8.45728 6.05978 8.45728 7.04267C8.45728 8.02555 7.64191 8.82541 6.63997 8.82541Z" fill="currentColor"/>
</svg>
