<svg width="72" height="72" viewBox="0 0 72 72" fill="none" xmlns="http://www.w3.org/2000/svg">
<path d="M57.375 67.5H14.625C12.7642 67.5 11.25 65.9857 11.25 64.125V25.875C11.25 25.254 11.754 24.75 12.375 24.75C12.996 24.75 13.5 25.254 13.5 25.875V64.125C13.5 64.746 14.004 65.25 14.625 65.25H57.375C57.996 65.25 58.5 64.746 58.5 64.125V7.875C58.5 7.254 57.996 6.75 57.375 6.75H14.625C14.004 6.75 13.5 7.254 13.5 7.875V16.875C13.5 17.496 14.004 18 14.625 18H52.875C53.496 18 54 18.504 54 19.125C54 19.746 53.496 20.25 52.875 20.25H14.625C12.7642 20.25 11.25 18.7358 11.25 16.875V7.875C11.25 6.01425 12.7642 4.5 14.625 4.5H57.375C59.2357 4.5 60.75 6.01425 60.75 7.875V64.125C60.75 65.9857 59.2357 67.5 57.375 67.5Z" fill="currentColor"/>
<path d="M50.625 60.75H48.375C46.5142 60.75 45 59.2358 45 57.375V41.625C45 39.7642 46.5142 38.25 48.375 38.25H50.625C52.4858 38.25 54 39.7642 54 41.625V57.375C54 59.2358 52.4858 60.75 50.625 60.75ZM48.375 40.5C47.754 40.5 47.25 41.004 47.25 41.625V57.375C47.25 57.996 47.754 58.5 48.375 58.5H50.625C51.246 58.5 51.75 57.996 51.75 57.375V41.625C51.75 41.004 51.246 40.5 50.625 40.5H48.375Z" fill="currentColor"/>
<path d="M23.625 60.75H21.375C19.5142 60.75 18 59.2358 18 57.375V55.125C18 53.2642 19.5142 51.75 21.375 51.75H23.625C25.4858 51.75 27 53.2642 27 55.125V57.375C27 59.2358 25.4858 60.75 23.625 60.75ZM21.375 54C20.754 54 20.25 54.504 20.25 55.125V57.375C20.25 57.996 20.754 58.5 21.375 58.5H23.625C24.246 58.5 24.75 57.996 24.75 57.375V55.125C24.75 54.504 24.246 54 23.625 54H21.375Z" fill="currentColor"/>
<path d="M23.625 47.25H21.375C19.5142 47.25 18 45.7358 18 43.875V41.625C18 39.7642 19.5142 38.25 21.375 38.25H23.625C25.4858 38.25 27 39.7642 27 41.625V43.875C27 45.7358 25.4858 47.25 23.625 47.25ZM21.375 40.5C20.754 40.5 20.25 41.004 20.25 41.625V43.875C20.25 44.496 20.754 45 21.375 45H23.625C24.246 45 24.75 44.496 24.75 43.875V41.625C24.75 41.004 24.246 40.5 23.625 40.5H21.375Z" fill="currentColor"/>
<path d="M37.125 47.25H34.875C33.0142 47.25 31.5 45.7358 31.5 43.875V41.625C31.5 39.7642 33.0142 38.25 34.875 38.25H37.125C38.9858 38.25 40.5 39.7642 40.5 41.625V43.875C40.5 45.7358 38.9858 47.25 37.125 47.25ZM34.875 40.5C34.254 40.5 33.75 41.004 33.75 41.625V43.875C33.75 44.496 34.254 45 34.875 45H37.125C37.746 45 38.25 44.496 38.25 43.875V41.625C38.25 41.004 37.746 40.5 37.125 40.5H34.875Z" fill="currentColor"/>
<path d="M23.625 33.75H21.375C19.5142 33.75 18 32.2358 18 30.375V28.125C18 26.2642 19.5142 24.75 21.375 24.75H23.625C25.4858 24.75 27 26.2642 27 28.125V30.375C27 32.2358 25.4858 33.75 23.625 33.75ZM21.375 27C20.754 27 20.25 27.504 20.25 28.125V30.375C20.25 30.996 20.754 31.5 21.375 31.5H23.625C24.246 31.5 24.75 30.996 24.75 30.375V28.125C24.75 27.504 24.246 27 23.625 27H21.375Z" fill="currentColor"/>
<path d="M37.125 33.75H34.875C33.0142 33.75 31.5 32.2358 31.5 30.375V28.125C31.5 26.2642 33.0142 24.75 34.875 24.75H37.125C38.9858 24.75 40.5 26.2642 40.5 28.125V30.375C40.5 32.2358 38.9858 33.75 37.125 33.75ZM34.875 27C34.254 27 33.75 27.504 33.75 28.125V30.375C33.75 30.996 34.254 31.5 34.875 31.5H37.125C37.746 31.5 38.25 30.996 38.25 30.375V28.125C38.25 27.504 37.746 27 37.125 27H34.875Z" fill="currentColor"/>
<path d="M50.625 33.75H48.375C46.5142 33.75 45 32.2358 45 30.375V28.125C45 26.2642 46.5142 24.75 48.375 24.75H50.625C52.4858 24.75 54 26.2642 54 28.125V30.375C54 32.2358 52.4858 33.75 50.625 33.75ZM48.375 27C47.754 27 47.25 27.504 47.25 28.125V30.375C47.25 30.996 47.754 31.5 48.375 31.5H50.625C51.246 31.5 51.75 30.996 51.75 30.375V28.125C51.75 27.504 51.246 27 50.625 27H48.375Z" fill="currentColor"/>
<path d="M37.125 60.75H34.875C33.0142 60.75 31.5 59.2358 31.5 57.375V55.125C31.5 53.2642 33.0142 51.75 34.875 51.75H37.125C38.9858 51.75 40.5 53.2642 40.5 55.125V57.375C40.5 59.2358 38.9858 60.75 37.125 60.75ZM34.875 54C34.254 54 33.75 54.504 33.75 55.125V57.375C33.75 57.996 34.254 58.5 34.875 58.5H37.125C37.746 58.5 38.25 57.996 38.25 57.375V55.125C38.25 54.504 37.746 54 37.125 54H34.875Z" fill="currentColor"/>
<path d="M57.375 67.5H14.625C12.7642 67.5 11.25 65.9857 11.25 64.125V25.875C11.25 25.254 11.754 24.75 12.375 24.75C12.996 24.75 13.5 25.254 13.5 25.875V64.125C13.5 64.746 14.004 65.25 14.625 65.25H57.375C57.996 65.25 58.5 64.746 58.5 64.125V7.875C58.5 7.254 57.996 6.75 57.375 6.75H14.625C14.004 6.75 13.5 7.254 13.5 7.875V16.875C13.5 17.496 14.004 18 14.625 18H52.875C53.496 18 54 18.504 54 19.125C54 19.746 53.496 20.25 52.875 20.25H14.625C12.7642 20.25 11.25 18.7358 11.25 16.875V7.875C11.25 6.01425 12.7642 4.5 14.625 4.5H57.375C59.2357 4.5 60.75 6.01425 60.75 7.875V64.125C60.75 65.9857 59.2357 67.5 57.375 67.5Z" fill="currentColor"/>
<path d="M50.625 60.75H48.375C46.5142 60.75 45 59.2358 45 57.375V41.625C45 39.7642 46.5142 38.25 48.375 38.25H50.625C52.4858 38.25 54 39.7642 54 41.625V57.375C54 59.2358 52.4858 60.75 50.625 60.75ZM48.375 40.5C47.754 40.5 47.25 41.004 47.25 41.625V57.375C47.25 57.996 47.754 58.5 48.375 58.5H50.625C51.246 58.5 51.75 57.996 51.75 57.375V41.625C51.75 41.004 51.246 40.5 50.625 40.5H48.375Z" fill="currentColor"/>
<path d="M23.625 60.75H21.375C19.5142 60.75 18 59.2358 18 57.375V55.125C18 53.2642 19.5142 51.75 21.375 51.75H23.625C25.4858 51.75 27 53.2642 27 55.125V57.375C27 59.2358 25.4858 60.75 23.625 60.75ZM21.375 54C20.754 54 20.25 54.504 20.25 55.125V57.375C20.25 57.996 20.754 58.5 21.375 58.5H23.625C24.246 58.5 24.75 57.996 24.75 57.375V55.125C24.75 54.504 24.246 54 23.625 54H21.375Z" fill="currentColor"/>
<path d="M23.625 47.25H21.375C19.5142 47.25 18 45.7358 18 43.875V41.625C18 39.7642 19.5142 38.25 21.375 38.25H23.625C25.4858 38.25 27 39.7642 27 41.625V43.875C27 45.7358 25.4858 47.25 23.625 47.25ZM21.375 40.5C20.754 40.5 20.25 41.004 20.25 41.625V43.875C20.25 44.496 20.754 45 21.375 45H23.625C24.246 45 24.75 44.496 24.75 43.875V41.625C24.75 41.004 24.246 40.5 23.625 40.5H21.375Z" fill="currentColor"/>
<path d="M37.125 47.25H34.875C33.0142 47.25 31.5 45.7358 31.5 43.875V41.625C31.5 39.7642 33.0142 38.25 34.875 38.25H37.125C38.9858 38.25 40.5 39.7642 40.5 41.625V43.875C40.5 45.7358 38.9858 47.25 37.125 47.25ZM34.875 40.5C34.254 40.5 33.75 41.004 33.75 41.625V43.875C33.75 44.496 34.254 45 34.875 45H37.125C37.746 45 38.25 44.496 38.25 43.875V41.625C38.25 41.004 37.746 40.5 37.125 40.5H34.875Z" fill="currentColor"/>
<path d="M23.625 33.75H21.375C19.5142 33.75 18 32.2358 18 30.375V28.125C18 26.2642 19.5142 24.75 21.375 24.75H23.625C25.4858 24.75 27 26.2642 27 28.125V30.375C27 32.2358 25.4858 33.75 23.625 33.75ZM21.375 27C20.754 27 20.25 27.504 20.25 28.125V30.375C20.25 30.996 20.754 31.5 21.375 31.5H23.625C24.246 31.5 24.75 30.996 24.75 30.375V28.125C24.75 27.504 24.246 27 23.625 27H21.375Z" fill="currentColor"/>
<path d="M37.125 33.75H34.875C33.0142 33.75 31.5 32.2358 31.5 30.375V28.125C31.5 26.2642 33.0142 24.75 34.875 24.75H37.125C38.9858 24.75 40.5 26.2642 40.5 28.125V30.375C40.5 32.2358 38.9858 33.75 37.125 33.75ZM34.875 27C34.254 27 33.75 27.504 33.75 28.125V30.375C33.75 30.996 34.254 31.5 34.875 31.5H37.125C37.746 31.5 38.25 30.996 38.25 30.375V28.125C38.25 27.504 37.746 27 37.125 27H34.875Z" fill="currentColor"/>
<path d="M50.625 33.75H48.375C46.5142 33.75 45 32.2358 45 30.375V28.125C45 26.2642 46.5142 24.75 48.375 24.75H50.625C52.4858 24.75 54 26.2642 54 28.125V30.375C54 32.2358 52.4858 33.75 50.625 33.75ZM48.375 27C47.754 27 47.25 27.504 47.25 28.125V30.375C47.25 30.996 47.754 31.5 48.375 31.5H50.625C51.246 31.5 51.75 30.996 51.75 30.375V28.125C51.75 27.504 51.246 27 50.625 27H48.375Z" fill="currentColor"/>
<path d="M37.125 60.75H34.875C33.0142 60.75 31.5 59.2358 31.5 57.375V55.125C31.5 53.2642 33.0142 51.75 34.875 51.75H37.125C38.9858 51.75 40.5 53.2642 40.5 55.125V57.375C40.5 59.2358 38.9858 60.75 37.125 60.75ZM34.875 54C34.254 54 33.75 54.504 33.75 55.125V57.375C33.75 57.996 34.254 58.5 34.875 58.5H37.125C37.746 58.5 38.25 57.996 38.25 57.375V55.125C38.25 54.504 37.746 54 37.125 54H34.875Z" fill="currentColor"/>
</svg>
