<svg width="24" height="24" viewBox="0 0 24 24" fill="none" xmlns="http://www.w3.org/2000/svg">
<path d="M7.875 6V7.5C6.8415 7.5 6 8.34075 6 9.375H4.5C4.5 7.51425 6.01425 6 7.875 6Z" fill="currentColor"/>
<path d="M16.125 3.75C14.538 3.75 13.0553 4.41075 12 5.5545C10.9447 4.41075 9.462 3.75 7.875 3.75C4.773 3.75 2.25 6.24975 2.25 9.375C2.25 16.1565 12 20.25 12 20.25C12 20.25 21.75 16.1565 21.75 9.375C21.75 6.24975 19.227 3.75 16.125 3.75ZM12 18.5978C10.0335 17.6408 3.75 14.2035 3.75 9.375C3.75 7.10025 5.60025 5.25 7.875 5.25C9.0375 5.25 10.1115 5.7195 10.8975 6.5715L11.4488 7.16925H12.5513L13.1025 6.5715C13.8885 5.7195 14.9625 5.25 16.125 5.25C18.3997 5.25 20.25 7.10025 20.25 9.375C20.25 14.2035 13.9665 17.6408 12 18.5978Z" fill="currentColor"/>
</svg>
