<svg width="28" height="28" viewBox="0 0 28 28" fill="none" xmlns="http://www.w3.org/2000/svg">
<path d="M12.502 12.769L8.6461 8.91322L9.76151 7.79785L13.6173 11.6536L14.2521 11.0189L10.2033 6.97005L11.3688 5.80461C11.3781 5.79534 11.3866 5.78569 11.3949 5.77568C11.4042 5.76791 11.4132 5.76003 11.4219 5.75138L13.5299 3.64341C13.703 3.47044 13.7056 3.19065 13.5356 3.0145L13.5117 2.98952C13.4917 2.96854 13.4717 2.94763 13.4511 2.92702C12.3973 1.87327 11.0294 1.24414 9.79181 1.24414C8.95718 1.24414 8.23915 1.52097 7.71541 2.04475C7.70401 2.05611 7.69349 2.06813 7.68347 2.08053C7.67658 2.08657 7.66963 2.09243 7.66311 2.09893L2.88199 6.88014C2.70672 7.05546 2.70672 7.33963 2.88199 7.51496L3.58825 8.22117L3.00503 8.80439L2.29876 8.09804C2.21454 8.01389 2.1004 7.96655 1.98135 7.96655C1.86232 7.96655 1.74817 8.01389 1.66395 8.09804L0.199819 9.56232C0.0245394 9.73765 0.0245394 10.0218 0.199819 10.197L3.27072 13.2679C3.35494 13.3521 3.46908 13.3994 3.58811 13.3994C3.70716 13.3994 3.82137 13.3521 3.90553 13.2679L5.36954 11.8037C5.54482 11.6285 5.54482 11.3443 5.36954 11.169L4.66339 10.4628L5.24662 9.87956L5.95276 10.5858C6.04043 10.6734 6.15528 10.7171 6.27017 10.7171C6.38502 10.7171 6.49993 10.6733 6.58752 10.5858L7.81834 9.35495L11.8672 13.4038L12.502 12.769ZM9.79181 2.14184C10.7067 2.14184 11.7258 2.58186 12.5721 3.33179L11.1046 4.79921L8.71045 2.40505C9.01385 2.23181 9.38035 2.14184 9.79181 2.14184ZM3.58811 12.3157L1.15197 9.87965L1.98135 9.05021L4.41738 11.4863L3.58811 12.3157ZM4.06102 9.79564L3.67215 9.40676L4.22294 8.85597L4.61179 9.24483L4.06102 9.79564ZM6.27017 9.63358L3.83416 7.19749L7.98054 3.05107L10.4167 5.48726L6.27017 9.63358Z" fill="currentColor"/>
<path d="M27.4395 24.2058L18.2042 14.9707L17.5695 15.6054L26.4874 24.5233L25.3721 25.6388L16.454 16.7208L15.8193 17.3556L25.0547 26.591C25.1389 26.6751 25.2531 26.7225 25.3721 26.7225C25.4912 26.7225 25.6054 26.6751 25.6896 26.591L27.4396 24.8407C27.6148 24.6654 27.6148 24.3812 27.4395 24.2058Z" fill="currentColor"/>
<path d="M27.6949 4.11055C27.6441 3.96476 27.5217 3.85544 27.3712 3.821C27.2208 3.78668 27.0631 3.83201 26.9539 3.94123L25.1404 5.75463L23.44 4.05417L25.2536 2.24086C25.3628 2.13165 25.4082 1.97399 25.3738 1.82346C25.3394 1.6729 25.23 1.5506 25.0843 1.49969C24.6321 1.34181 24.159 1.26172 23.6784 1.26172C22.5419 1.26172 21.4735 1.70426 20.67 2.50778C19.8662 3.31138 19.4236 4.3798 19.4236 5.51632C19.4236 6.0661 19.5282 6.59973 19.726 7.09543L8.2734 18.548C7.77778 18.3501 7.24427 18.2457 6.69456 18.2457C5.5581 18.2457 4.48965 18.6883 3.686 19.4919C2.53797 20.6399 2.14222 22.3727 2.67786 23.9062C2.72876 24.052 2.85106 24.1613 3.0016 24.1957C3.15207 24.23 3.30974 24.1848 3.41901 24.0756L5.23249 22.2621L6.93294 23.9623L5.1194 25.7758C5.01018 25.885 4.96481 26.0427 4.99917 26.1932C5.03361 26.3438 5.14294 26.466 5.28871 26.517C5.74081 26.6749 6.21376 26.7549 6.69449 26.7551C6.69462 26.7551 6.69462 26.7551 6.69474 26.7551C7.83095 26.7551 8.8994 26.3123 9.70303 25.5087C10.9406 24.271 11.2543 22.4543 10.6451 20.9226L22.0994 9.46852C22.5951 9.66651 23.1286 9.77097 23.6784 9.77097C23.6785 9.77097 23.6784 9.77097 23.6785 9.77097C24.8148 9.77097 25.8833 9.3285 26.6868 8.52487C27.8349 7.37683 28.2306 5.64406 27.6949 4.11055ZM9.06821 24.874C8.43413 25.5081 7.59124 25.8574 6.69474 25.8574C6.69474 25.8574 6.69456 25.8574 6.69449 25.8574C6.57137 25.8572 6.44884 25.8506 6.32735 25.8375L7.88504 24.2798C7.96926 24.1955 8.01654 24.0814 8.01654 23.9623C8.01654 23.8433 7.96926 23.7291 7.88504 23.645L5.54984 21.3099C5.37464 21.1347 5.0904 21.1347 4.91508 21.3099L3.3584 22.8666C3.25208 21.869 3.59692 20.8506 4.32084 20.1266C4.95492 19.4925 5.79787 19.1433 6.69457 19.1433C7.59119 19.1433 8.43415 19.4925 9.06816 20.1267C10.377 21.4354 10.377 23.5652 9.06821 24.874ZM10.2546 20.0435L9.15106 18.9399L20.0788 8.01227L21.1826 9.11584L10.2546 20.0435ZM26.0521 7.89016C25.418 8.52409 24.5751 8.87325 23.6784 8.87325C22.7817 8.87325 21.9386 8.52411 21.3045 7.89003C20.6706 7.25596 20.3213 6.41299 20.3213 5.5163C20.3213 4.61962 20.6706 3.77666 21.3047 3.14256C21.9386 2.50854 22.7817 2.15938 23.6784 2.15938C23.8016 2.15938 23.9241 2.16606 24.0456 2.17929L22.4879 3.73683C22.4037 3.82098 22.3564 3.93519 22.3564 4.05416C22.3564 4.17327 22.4037 4.28735 22.4879 4.37151L24.8229 6.70666C24.9982 6.88199 25.2825 6.88199 25.4577 6.70679L27.0144 5.15009C27.1207 6.14775 26.776 7.16617 26.0521 7.89016Z" fill="currentColor"/>
</svg>
