<svg width="68" height="68" viewBox="0 0 68 68" fill="none" xmlns="http://www.w3.org/2000/svg">
<path d="M25.2553 14.1968H20.1763C19.4283 14.1968 18.8218 14.8032 18.8218 15.5513C18.8218 16.2995 19.4283 16.9059 20.1763 16.9059H25.2553C26.0033 16.9059 26.6099 16.2995 26.6099 15.5513C26.6099 14.8032 26.0033 14.1968 25.2553 14.1968Z" fill="currentColor"/>
<path d="M66.6455 23.1953H45.4321V15.7008C45.4321 12.7622 42.9124 10.1043 38.3375 8.21659C34.1429 6.48578 28.5949 5.53271 22.7161 5.53271C16.8372 5.53271 11.2893 6.48578 7.09458 8.21659C2.51972 10.1043 0 12.7622 0 15.7008V52.2992C0 55.2378 2.51972 57.8958 7.09445 59.7834C11.2892 61.5142 16.837 62.4673 22.7159 62.4673H66.6453C67.3933 62.4673 67.9999 61.8609 67.9999 61.1128V24.5499C68 23.8017 67.3935 23.1953 66.6455 23.1953ZM22.716 8.24196C34.5064 8.24196 42.7229 12.1729 42.7229 15.7008C42.7229 19.2287 34.5068 23.1596 22.7171 23.1597C22.7167 23.1597 22.7164 23.1597 22.716 23.1597C22.7156 23.1597 22.7152 23.1597 22.7148 23.1597C10.9252 23.1596 2.70924 19.2287 2.70924 15.7008C2.70924 12.1729 10.9257 8.24196 22.716 8.24196ZM42.723 20.6538V23.1952H38.3124C38.3207 23.1917 38.3293 23.1885 38.3375 23.1851C40.1216 22.4489 41.5914 21.5953 42.723 20.6538ZM65.2909 59.7579H56.4125V37.6574C56.4125 36.9093 55.806 36.3028 55.058 36.3028C54.31 36.3028 53.7034 36.9093 53.7034 37.6574V59.7581H34.8123V31.975C34.8123 31.2269 34.2057 30.6205 33.4577 30.6205C32.7097 30.6205 32.1032 31.2269 32.1032 31.975V59.7581H22.716C19.3286 59.7581 16.2371 59.4331 13.5498 58.887V31.975C13.5498 31.2269 12.9432 30.6205 12.1952 30.6205C11.4472 30.6205 10.8407 31.2269 10.8407 31.975V58.225C5.77216 56.7569 2.70924 54.4529 2.70924 52.2992V20.6539C3.84054 21.5952 5.31051 22.4489 7.09458 23.1851C11.2154 24.8854 16.6421 25.8344 22.4056 25.8672L65.291 25.9043V59.7579H65.2909Z" fill="currentColor"/>
<path d="M55.0582 30.6206C54.3102 30.6206 53.7036 31.227 53.7036 31.9752V32.9164C53.7036 33.6645 54.3102 34.271 55.0582 34.271C55.8062 34.271 56.4127 33.6645 56.4127 32.9164V31.9752C56.4127 31.227 55.8062 30.6206 55.0582 30.6206Z" fill="currentColor"/>
</svg>
