<svg width="20" height="20" viewBox="0 0 20 20" fill="none" xmlns="http://www.w3.org/2000/svg">
<g clip-path="url(#clip0_9_11477)">
<path fill-rule="evenodd" clip-rule="evenodd" d="M9.62795 0.920983C9.86262 0.803683 10.1387 0.803683 10.3734 0.920983L18.7067 5.08765C18.989 5.22881 19.1673 5.51737 19.1673 5.83301C19.1673 6.14865 18.989 6.43721 18.7067 6.57837L10.3734 10.745C10.1387 10.8623 9.86262 10.8623 9.62795 10.745L1.29464 6.57837C1.01233 6.43721 0.833984 6.14865 0.833984 5.83301C0.833984 5.51737 1.01233 5.22881 1.29464 5.08765L9.62795 0.920983ZM3.53071 5.83301L10.0006 9.06801L16.4706 5.83301L10.0006 2.59803L3.53071 5.83301Z" fill="currentColor"/>
<path d="M0.921166 13.7939C1.12699 13.3822 1.62755 13.2154 2.0392 13.4211L9.99984 17.4015L17.9605 13.4211C18.3722 13.2154 18.8728 13.3822 19.0785 13.7939C19.2843 14.2055 19.1175 14.706 18.7058 14.9119L10.3725 19.0785C10.1379 19.1959 9.86176 19.1959 9.62717 19.0785L1.29385 14.9119C0.882199 14.706 0.715344 14.2055 0.921166 13.7939Z" fill="currentColor"/>
<path d="M2.0392 9.25413C1.62755 9.04838 1.12699 9.21521 0.921166 9.62688C0.715344 10.0385 0.882199 10.539 1.29385 10.7449L9.62717 14.9115C9.86176 15.0289 10.1379 15.0289 10.3725 14.9115L18.7058 10.7449C19.1175 10.539 19.2843 10.0385 19.0785 9.62688C18.8728 9.21521 18.3722 9.04838 17.9605 9.25413L9.99984 13.2345L2.0392 9.25413Z" fill="currentColor"/>
</g>
<defs>
<clipPath id="clip0_9_11477">
<rect width="20" height="20" fill="currentColor"/>
</clipPath>
</defs>
</svg>
