<svg width="28" height="28" viewBox="0 0 28 28" fill="none" xmlns="http://www.w3.org/2000/svg">
<path d="M23.8711 15.4314L22.7567 14.6057C22.8839 13.748 22.8848 12.8858 22.7595 12.0356L23.8711 11.212C24.0327 11.0922 24.0921 10.8778 24.0151 10.692L22.9413 8.09971C22.8643 7.91383 22.6705 7.80412 22.4718 7.83388L21.1034 8.03748C20.5908 7.3477 19.9806 6.73876 19.284 6.22207L19.4882 4.85018C19.5178 4.65117 19.4082 4.45758 19.2224 4.38063L16.6301 3.30695C16.4443 3.22995 16.2298 3.28934 16.1101 3.451L15.8417 3.8132V1.3737C15.8416 0.616219 15.2254 0 14.468 0H13.5327C12.7752 0 12.159 0.616219 12.159 1.3737V3.81314L11.8906 3.45089C11.7709 3.28923 11.5564 3.2299 11.3706 3.30684L8.77832 4.38052C8.59244 4.45752 8.48284 4.65112 8.51248 4.85007L8.71609 6.21852C8.02637 6.7311 7.41742 7.3413 6.90079 8.03786L5.5289 7.83371C5.32984 7.80402 5.1363 7.91372 5.05935 8.09955L3.98556 10.6918C3.90856 10.8777 3.96795 11.0921 4.12961 11.2118L5.24398 12.0375C5.11683 12.8952 5.1159 13.7574 5.24119 14.6076L4.12961 15.4312C3.96795 15.551 3.90856 15.7654 3.98556 15.9513L5.05935 18.5435C5.13635 18.7294 5.33016 18.8391 5.5289 18.8094L6.89734 18.6058C7.40993 19.2956 8.02013 19.9045 8.71669 20.4212L8.51248 21.7931C8.4829 21.992 8.59249 22.1857 8.77832 22.2626L11.3706 23.3364C11.5564 23.4134 11.7709 23.354 11.8906 23.1924L12.159 22.8301V22.8851C12.159 22.9277 12.1652 22.9702 12.1775 23.011L13.5804 27.6875C13.636 27.873 13.8067 28 14.0003 28C14.1939 28 14.3646 27.873 14.4203 27.6876L15.8232 23.0111C15.8354 22.9703 15.8416 22.9278 15.8416 22.8852V22.8302L16.1101 23.1925C16.1947 23.3068 16.3267 23.3699 16.4624 23.3699C16.5186 23.3699 16.5756 23.3591 16.6301 23.3366L19.2223 22.2628C19.4082 22.1858 19.5178 21.9922 19.4882 21.7932L19.2846 20.4248C19.9743 19.9122 20.5833 19.3019 21.1 18.6055L22.4718 18.8096C22.6709 18.8393 22.8644 18.7296 22.9413 18.5438L24.0151 15.9515C24.0921 15.7656 24.0327 15.5512 23.8711 15.4314ZM13.0358 1.3737C13.0358 1.09971 13.2587 0.876805 13.5327 0.876805H14.468C14.7419 0.876805 14.9648 1.09971 14.9648 1.3737V2.33822H13.0359L13.0358 1.3737ZM13.0358 3.21502H14.9648V4.52391C14.3207 4.452 13.6754 4.45113 13.0358 4.52123V3.21502ZM12.159 16.6113C11.4256 16.1998 10.842 15.5492 10.517 14.7645C9.77872 12.9822 10.5144 10.9516 12.159 10.0324V16.6113ZM14.0003 26.0358L13.1866 23.3236H14.814L14.0003 26.0358ZM14.9648 22.4468H13.0359V9.67766C13.6832 9.50595 14.3465 9.51459 14.9648 9.67909V22.4468ZM12.2219 9.02825C9.85452 10.0089 8.72631 12.7327 9.70691 15.1001C10.1689 16.2156 11.055 17.111 12.159 17.5884V18.6538C10.6292 18.1283 9.41494 16.9921 8.78882 15.4804C7.59855 12.6067 8.96803 9.30043 11.8417 8.11021C14.7154 6.91994 18.0215 8.28937 19.2119 11.163C19.7885 12.5551 19.7885 14.0884 19.2119 15.4804C18.6352 16.8725 17.5511 17.9566 16.1591 18.5333C16.0547 18.5765 15.9486 18.616 15.8417 18.653V17.5873C16.958 17.1059 17.8275 16.2257 18.2938 15.1001C18.7688 13.9533 18.7688 12.6902 18.2938 11.5433C17.3131 9.17596 14.5894 8.04776 12.2219 9.02825ZM15.8416 16.6113V10.0346C16.5561 10.4338 17.1469 11.0657 17.4836 11.8789C17.869 12.8093 17.869 13.8341 17.4836 14.7646C17.1553 15.5573 16.58 16.1998 15.8416 16.6113ZM22.2623 17.8919L20.9645 17.6988C20.7996 17.6743 20.6352 17.7453 20.5401 17.8821C19.9976 18.6619 19.3317 19.3291 18.5612 19.8651C18.4244 19.9603 18.3534 20.1247 18.3779 20.2896L18.5705 21.5837L16.6107 22.3955L15.8416 21.3574V19.5743C16.0625 19.5089 16.2813 19.4317 16.4945 19.3434C18.103 18.6771 19.3556 17.4244 20.0219 15.816C20.6881 14.2076 20.6881 12.4359 20.0219 10.8276C18.6465 7.50728 14.8263 5.92495 11.506 7.30023C8.18567 8.67552 6.60329 12.4957 7.97857 15.8161C8.74075 17.6562 10.2568 19.0149 12.1589 19.5741V21.3576L11.3897 22.3956L9.42992 21.5838L9.62308 20.2861C9.64758 20.1213 9.57659 19.9568 9.43982 19.8617C8.66003 19.3191 7.99284 18.6533 7.4568 17.8828C7.36164 17.746 7.1972 17.6749 7.03237 17.6996L5.73819 17.8921L4.92641 15.9323L5.97766 15.1534C6.11159 15.0542 6.17766 14.8877 6.14818 14.7236C5.98242 13.7997 5.98335 12.8571 6.15108 11.9221C6.1805 11.7581 6.11449 11.5916 5.98056 11.4925L4.9263 10.7113L5.73808 8.75153L7.03581 8.94463C7.20059 8.96913 7.36503 8.89815 7.46019 8.76143C8.00285 7.98159 8.66862 7.3144 9.43905 6.77841C9.57583 6.6833 9.64687 6.51881 9.62231 6.35403L9.42976 5.05985L11.3895 4.24807L12.1685 5.29938C12.2677 5.43331 12.4341 5.49932 12.5982 5.4699C13.522 5.30414 14.4645 5.30507 15.3997 5.4728C15.5636 5.50222 15.7301 5.43616 15.8293 5.30228L16.6104 4.24802L18.5702 5.0598L18.3771 6.35764C18.3526 6.52241 18.4236 6.68686 18.5603 6.78202C19.3402 7.32463 20.0073 7.99039 20.5434 8.76088C20.6385 8.89766 20.8031 8.96881 20.9678 8.94414L22.262 8.75159L23.0737 10.7113L22.0225 11.4903C21.8886 11.5895 21.8225 11.756 21.852 11.92C22.0177 12.8439 22.0168 13.7864 21.8491 14.7214C21.8196 14.8854 21.8857 15.052 22.0196 15.1511L23.0738 15.9323L22.2623 17.8919Z" fill="currentColor"/>
</svg>
