<svg width="11" height="7" viewBox="0 0 11 7" fill="none" xmlns="http://www.w3.org/2000/svg">
<path d="M10.8901 0.954253L10.339 0.403228C10.2656 0.329645 10.181 0.292969 10.0854 0.292969C9.98999 0.292969 9.90544 0.329645 9.83201 0.403228L5.50006 4.73495L1.1683 0.403344C1.09483 0.32976 1.01028 0.293085 0.914772 0.293085C0.819222 0.293085 0.734674 0.32976 0.661245 0.403344L0.110259 0.954407C0.0366758 1.02784 0 1.11238 0 1.20793C0 1.30341 0.0367916 1.38795 0.110259 1.46138L5.24653 6.59777C5.31996 6.67124 5.40455 6.70795 5.50006 6.70795C5.59557 6.70795 5.68 6.67124 5.75339 6.59777L10.8901 1.46138C10.9635 1.38792 11 1.30337 11 1.20793C11 1.11238 10.9635 1.02784 10.8901 0.954253Z" fill="currentColor"/>
</svg>
