<svg width="204" height="66" viewBox="0 0 204 66" fill="none" xmlns="http://www.w3.org/2000/svg">
<path d="M0 0H204V56C204 61.5229 199.523 66 194 66H10C4.47716 66 0 61.5228 0 56V0Z" fill="#7B9F6E"/>
<path d="M20.5 42.5C20.2 43.3667 19.7333 44.1667 19.1 44.9C18.4667 45.6333 17.5333 46 16.3 46H14.75V45.5C14.95 45.5 15.2167 45.45 15.55 45.35C15.8833 45.2167 16.2333 45.0167 16.6 44.75C16.9667 44.4833 17.3333 44.15 17.7 43.75C18.0667 43.3167 18.3833 42.7833 18.65 42.15L28.1 16.25C28.2667 15.75 28.35 15.3667 28.35 15.1C28.35 14.6 28.2 14.2167 27.9 13.95C27.6333 13.65 27.35 13.5 27.05 13.5V13H31.15L42.35 43.6C42.5167 44.0667 42.8333 44.5 43.3 44.9C43.7667 45.2667 44.2833 45.4667 44.85 45.5V46H37.7V45.5C37.9667 45.5 38.2333 45.4 38.5 45.2C38.8 44.9667 38.95 44.6667 38.95 44.3C38.95 44.2 38.9167 44.05 38.85 43.85L29.45 17.95L20.5 42.5ZM59.0742 46.35C57.4076 46.35 55.9076 46.0833 54.5742 45.55C53.2409 44.9833 52.0909 44.2333 51.1242 43.3C50.1909 42.3333 49.4576 41.2 48.9242 39.9C48.4242 38.6 48.1742 37.1833 48.1742 35.65C48.1742 34.0167 48.4576 32.5333 49.0242 31.2C49.5909 29.8333 50.3742 28.6667 51.3742 27.7C52.3742 26.7333 53.5576 25.9833 54.9242 25.45C56.2909 24.9167 57.7742 24.65 59.3742 24.65C60.9742 24.65 62.4409 24.9167 63.7742 25.45C65.1076 25.95 66.2576 26.6667 67.2242 27.6C68.1909 28.5333 68.9409 29.65 69.4742 30.95C70.0076 32.2167 70.2742 33.6167 70.2742 35.15C70.2742 36.5833 70.0242 37.9833 69.5242 39.35C69.0576 40.6833 68.3409 41.8667 67.3742 42.9C66.4409 43.9333 65.2742 44.7667 63.8742 45.4C62.5076 46.0333 60.9076 46.35 59.0742 46.35ZM58.7742 26.3C57.5742 26.3667 56.5076 26.6667 55.5742 27.2C54.6742 27.7 53.9076 28.3667 53.2742 29.2C52.6742 30 52.2076 30.9167 51.8742 31.95C51.5742 32.9833 51.4242 34.0333 51.4242 35.1C51.4242 36.3333 51.6076 37.5333 51.9742 38.7C52.3742 39.8333 52.9242 40.85 53.6242 41.75C54.3576 42.65 55.2242 43.3667 56.2242 43.9C57.2242 44.4333 58.3409 44.7 59.5742 44.7C60.8076 44.7 61.8909 44.4333 62.8242 43.9C63.7909 43.3667 64.5909 42.6833 65.2242 41.85C65.8576 40.9833 66.3242 40.0167 66.6242 38.95C66.9576 37.8833 67.1242 36.8167 67.1242 35.75C67.1242 34.65 66.9576 33.55 66.6242 32.45C66.2909 31.3167 65.7742 30.3 65.0742 29.4C64.3742 28.4667 63.4909 27.7167 62.4242 27.15C61.3909 26.5833 60.1742 26.3 58.7742 26.3ZM90.2461 25V30.2H89.7461C89.7461 29.8333 89.6628 29.45 89.4961 29.05C89.3628 28.6167 89.1461 28.2333 88.8461 27.9C88.5461 27.5333 88.1794 27.2333 87.7461 27C87.3461 26.7667 86.8794 26.65 86.3461 26.65H79.6961V42.85C79.6961 43.1167 79.7294 43.4 79.7961 43.7C79.8961 44 80.0128 44.2833 80.1461 44.55C80.3128 44.8167 80.4961 45.05 80.6961 45.25C80.8961 45.4167 81.1294 45.5 81.3961 45.5V46H74.7461V45.5C75.0128 45.5 75.2461 45.4167 75.4461 45.25C75.6461 45.05 75.8128 44.8167 75.9461 44.55C76.1128 44.2833 76.2294 44 76.2961 43.7C76.3628 43.4 76.3961 43.1167 76.3961 42.85V28.1C76.3961 27.8667 76.3628 27.6 76.2961 27.3C76.2294 27 76.1128 26.7167 75.9461 26.45C75.8128 26.1833 75.6461 25.9667 75.4461 25.8C75.2461 25.6 75.0128 25.5 74.7461 25.5V25H90.2461ZM102.824 46.35C101.158 46.35 99.6576 46.0833 98.3242 45.55C96.9909 44.9833 95.8409 44.2333 94.8742 43.3C93.9409 42.3333 93.2076 41.2 92.6742 39.9C92.1742 38.6 91.9242 37.1833 91.9242 35.65C91.9242 34.0167 92.2076 32.5333 92.7742 31.2C93.3409 29.8333 94.1242 28.6667 95.1242 27.7C96.1242 26.7333 97.3076 25.9833 98.6742 25.45C100.041 24.9167 101.524 24.65 103.124 24.65C104.724 24.65 106.191 24.9167 107.524 25.45C108.858 25.95 110.008 26.6667 110.974 27.6C111.941 28.5333 112.691 29.65 113.224 30.95C113.758 32.2167 114.024 33.6167 114.024 35.15C114.024 36.5833 113.774 37.9833 113.274 39.35C112.808 40.6833 112.091 41.8667 111.124 42.9C110.191 43.9333 109.024 44.7667 107.624 45.4C106.258 46.0333 104.658 46.35 102.824 46.35ZM102.524 26.3C101.324 26.3667 100.258 26.6667 99.3242 27.2C98.4242 27.7 97.6576 28.3667 97.0242 29.2C96.4242 30 95.9576 30.9167 95.6242 31.95C95.3242 32.9833 95.1742 34.0333 95.1742 35.1C95.1742 36.3333 95.3576 37.5333 95.7242 38.7C96.1242 39.8333 96.6742 40.85 97.3742 41.75C98.1076 42.65 98.9742 43.3667 99.9742 43.9C100.974 44.4333 102.091 44.7 103.324 44.7C104.558 44.7 105.641 44.4333 106.574 43.9C107.541 43.3667 108.341 42.6833 108.974 41.85C109.608 40.9833 110.074 40.0167 110.374 38.95C110.708 37.8833 110.874 36.8167 110.874 35.75C110.874 34.65 110.708 33.55 110.374 32.45C110.041 31.3167 109.524 30.3 108.824 29.4C108.124 28.4667 107.241 27.7167 106.174 27.15C105.141 26.5833 103.924 26.3 102.524 26.3ZM134.664 30.25C134.664 29.8833 134.597 29.4833 134.464 29.05C134.33 28.6167 134.13 28.2333 133.864 27.9C133.597 27.5333 133.264 27.2333 132.864 27C132.464 26.7667 131.997 26.65 131.464 26.65H127.064V42.75C127.064 43.0167 127.097 43.3 127.164 43.6C127.23 43.9 127.33 44.2 127.464 44.5C127.63 44.7667 127.797 45 127.964 45.2C128.164 45.4 128.397 45.5 128.664 45.5V46H122.164V45.5C122.43 45.5 122.664 45.4 122.864 45.2C123.064 45 123.23 44.7667 123.364 44.5C123.53 44.2333 123.647 43.95 123.714 43.65C123.78 43.3167 123.814 43.0167 123.814 42.75V26.65H119.514C118.98 26.65 118.514 26.7667 118.114 27C117.714 27.2333 117.38 27.5333 117.114 27.9C116.88 28.2333 116.697 28.6167 116.564 29.05C116.43 29.4833 116.364 29.8833 116.364 30.25H115.864V25H135.114V30.25H134.664ZM158.029 42.75C158.029 43.0167 158.062 43.3167 158.129 43.65C158.229 43.95 158.345 44.2333 158.479 44.5C158.612 44.7667 158.779 45 158.979 45.2C159.212 45.4 159.429 45.5 159.629 45.5V46H153.229V45.5C153.462 45.5 153.679 45.4167 153.879 45.25C154.079 45.05 154.245 44.8167 154.379 44.55C154.512 44.25 154.612 43.95 154.679 43.65C154.745 43.3167 154.779 43.0167 154.779 42.75V30.75L142.879 42.4V42.75C142.879 43.0167 142.912 43.3167 142.979 43.65C143.045 43.95 143.145 44.2333 143.279 44.5C143.412 44.7667 143.562 45 143.729 45.2C143.929 45.4 144.145 45.5 144.379 45.5V46H138.029V45.5C138.262 45.5 138.479 45.4167 138.679 45.25C138.879 45.05 139.045 44.8167 139.179 44.55C139.312 44.25 139.412 43.95 139.479 43.65C139.545 43.3167 139.579 43.0167 139.579 42.75V28.1C139.579 27.8667 139.545 27.6 139.479 27.3C139.412 27 139.312 26.7167 139.179 26.45C139.045 26.1833 138.879 25.9667 138.679 25.8C138.479 25.6 138.262 25.5 138.029 25.5V25H144.379V25.5C144.112 25.5 143.879 25.6 143.679 25.8C143.512 25.9667 143.362 26.1833 143.229 26.45C143.129 26.7167 143.045 27 142.979 27.3C142.912 27.6 142.879 27.8667 142.879 28.1V40.05L154.779 28.4V28.1C154.779 27.8667 154.745 27.6 154.679 27.3C154.612 27 154.512 26.7167 154.379 26.45C154.245 26.1833 154.079 25.9667 153.879 25.8C153.679 25.6 153.462 25.5 153.229 25.5V25H159.629V25.5C159.362 25.5 159.112 25.6 158.879 25.8C158.679 25.9667 158.512 26.1833 158.379 26.45C158.279 26.7167 158.195 27 158.129 27.3C158.062 27.6 158.029 27.8667 158.029 28.1V42.75ZM169.343 42.75C169.343 43.0167 169.377 43.3167 169.443 43.65C169.51 43.95 169.593 44.2333 169.693 44.5C169.827 44.7667 169.977 45 170.143 45.2C170.343 45.4 170.577 45.5 170.843 45.5V46H164.493V45.5C164.76 45.5 164.993 45.4167 165.193 45.25C165.393 45.05 165.543 44.8167 165.643 44.55C165.777 44.25 165.877 43.95 165.943 43.65C166.01 43.3167 166.043 43.0167 166.043 42.75V28.1C166.043 27.8667 166.01 27.6 165.943 27.3C165.877 26.9667 165.777 26.6833 165.643 26.45C165.51 26.1833 165.343 25.9667 165.143 25.8C164.943 25.6 164.727 25.5 164.493 25.5V25H185.243V25.5C184.71 25.5 184.31 25.8167 184.043 26.45C183.777 27.05 183.643 27.6 183.643 28.1V42.75C183.643 43.0167 183.677 43.3167 183.743 43.65C183.81 43.95 183.91 44.2333 184.043 44.5C184.177 44.7667 184.343 45 184.543 45.2C184.777 45.4 185.01 45.5 185.243 45.5V46H178.793V45.5C179.093 45.5 179.327 45.4167 179.493 45.25C179.693 45.05 179.86 44.8167 179.993 44.55C180.127 44.25 180.21 43.95 180.243 43.65C180.31 43.3167 180.343 43.0167 180.343 42.75V26.75H169.343V42.75Z" fill="white"/>
</svg>
