<svg width="571" height="121" viewBox="0 0 571 121" fill="none" xmlns="http://www.w3.org/2000/svg">
<path d="M67.5755 67.325V80.45H66.5255C66.4555 79.54 66.2105 78.525 65.7905 77.405C65.3705 76.285 64.7755 75.235 64.0055 74.255C63.3055 73.345 62.4655 72.575 61.4855 71.945C60.5055 71.315 59.4205 71 58.2305 71H9.82549C8.63549 71 7.55049 71.315 6.57049 71.945C5.59049 72.645 4.71549 73.45 3.94549 74.36C3.24549 75.34 2.65049 76.39 2.16049 77.51C1.74049 78.63 1.49549 79.61 1.42549 80.45H0.375488V67.325H4.99549C7.23549 67.325 8.81049 66.03 9.72049 63.44L33.8705 0.125L58.2305 63.125C58.7205 64.175 59.3855 65.155 60.2255 66.065C61.0655 66.905 62.0455 67.325 63.1655 67.325H67.5755ZM12.0305 67.325H52.4555L32.1905 15.14L12.0305 67.325Z" fill="url(#paint0_linear_2_7450)"/>
<path d="M111.496 0.649999C116.956 0.649999 121.856 1.63 126.196 3.59C130.536 5.48 134.211 8.07 137.221 11.36C140.301 14.58 142.646 18.36 144.256 22.7C145.936 26.97 146.776 31.45 146.776 36.14C146.776 41.39 145.796 46.22 143.836 50.63C141.946 55.04 139.321 58.82 135.961 61.97C132.601 65.12 128.681 67.605 124.201 69.425C119.791 71.175 115.066 72.05 110.026 72.05C104.636 72.05 99.7708 71.07 95.4308 69.11C91.1608 67.15 87.5208 64.56 84.5108 61.34C81.5708 58.12 79.2958 54.41 77.6858 50.21C76.0758 46.01 75.2708 41.635 75.2708 37.085C75.2708 32.605 76.0758 28.195 77.6858 23.855C79.2958 19.445 81.6408 15.525 84.7208 12.095C87.8708 8.665 91.6858 5.9 96.1658 3.8C100.646 1.7 105.756 0.649999 111.496 0.649999ZM111.391 68.375C116.081 68.165 120.176 67.115 123.676 65.225C127.246 63.265 130.221 60.815 132.601 57.875C134.981 54.865 136.731 51.575 137.851 48.005C139.041 44.435 139.636 40.9 139.636 37.4C139.636 33.55 138.936 29.665 137.536 25.745C136.136 21.825 134.141 18.29 131.551 15.14C128.961 11.92 125.846 9.33 122.206 7.37C118.636 5.34 114.611 4.325 110.131 4.325C105.791 4.325 101.906 5.305 98.4758 7.265C95.0458 9.155 92.1058 11.605 89.6558 14.615C87.2758 17.625 85.4558 20.985 84.1958 24.695C82.9358 28.405 82.3058 32.045 82.3058 35.615C82.3058 39.465 83.0408 43.35 84.5108 47.27C85.9808 51.12 88.0108 54.62 90.6008 57.77C93.1908 60.92 96.2358 63.475 99.7358 65.435C103.306 67.395 107.191 68.375 111.391 68.375Z" fill="url(#paint1_linear_2_7450)"/>
<path d="M190.078 4.43C184.898 4.43 180.383 5.375 176.533 7.265C172.753 9.085 169.603 11.5 167.083 14.51C164.563 17.45 162.673 20.775 161.413 24.485C160.223 28.195 159.628 31.87 159.628 35.51C159.628 39.64 160.433 43.7 162.043 47.69C163.653 51.61 165.858 55.11 168.658 58.19C171.528 61.2 174.853 63.65 178.633 65.54C182.413 67.36 186.508 68.27 190.918 68.27C192.178 68.27 193.648 68.13 195.328 67.85C197.078 67.57 198.793 67.045 200.473 66.275C202.153 65.435 203.693 64.28 205.093 62.81C206.563 61.34 207.683 59.415 208.453 57.035H209.503V68.69C208.453 68.69 207.333 68.83 206.143 69.11C205.023 69.39 203.763 69.705 202.363 70.055C200.543 70.545 198.513 71 196.273 71.42C194.103 71.84 191.793 72.05 189.343 72.05C183.253 72.05 177.898 71 173.278 68.9C168.658 66.8 164.808 64.07 161.728 60.71C158.648 57.35 156.338 53.57 154.798 49.37C153.258 45.1 152.488 40.795 152.488 36.455C152.488 32.115 153.258 27.81 154.798 23.54C156.338 19.27 158.683 15.455 161.833 12.095C164.983 8.665 168.938 5.9 173.698 3.8C178.458 1.7 184.058 0.649999 190.498 0.649999C192.808 0.649999 194.873 0.859999 196.693 1.28C198.583 1.7 200.263 2.12 201.733 2.54C202.783 2.89 203.728 3.17 204.568 3.38C205.478 3.52 206.353 3.59 207.193 3.59V15.245H206.143C205.723 13.075 204.953 11.29 203.833 9.89C202.713 8.42 201.383 7.3 199.843 6.53C198.373 5.76 196.763 5.235 195.013 4.955C193.333 4.605 191.688 4.43 190.078 4.43Z" fill="url(#paint2_linear_2_7450)"/>
<path d="M243.975 69.95H244.5V71H229.59V69.95H230.115C230.675 69.95 231.165 69.74 231.585 69.32C232.005 68.9 232.355 68.41 232.635 67.85C232.985 67.29 233.23 66.695 233.37 66.065C233.51 65.365 233.58 64.735 233.58 64.175V5.585H221.4C220.28 5.585 219.3 5.83 218.46 6.32C217.62 6.81 216.92 7.44 216.36 8.21C215.8 8.91 215.38 9.715 215.1 10.625C214.82 11.465 214.68 12.305 214.68 13.145H213.63V1.7H260.775V13.145H259.725C259.725 12.305 259.585 11.465 259.305 10.625C259.025 9.715 258.605 8.91 258.045 8.21C257.485 7.44 256.785 6.81 255.945 6.32C255.105 5.83 254.125 5.585 253.005 5.585H240.615V64.175C240.615 64.735 240.685 65.365 240.825 66.065C240.965 66.695 241.175 67.29 241.455 67.85C241.805 68.41 242.155 68.9 242.505 69.32C242.925 69.74 243.415 69.95 243.975 69.95Z" fill="url(#paint3_linear_2_7450)"/>
<path d="M262.536 1.7H277.131V2.75H276.501C275.731 2.75 275.206 2.995 274.926 3.485C274.646 3.905 274.506 4.36 274.506 4.85C274.506 5.2 274.541 5.515 274.611 5.795C274.681 6.075 274.751 6.285 274.821 6.425L292.776 45.695L308.841 7.58C308.911 7.44 309.016 7.16 309.156 6.74C309.296 6.25 309.366 5.795 309.366 5.375C309.366 4.395 309.016 3.73 308.316 3.38C307.616 2.96 307.091 2.75 306.741 2.75V1.7H317.976V2.75C316.716 2.75 315.736 3.1 315.036 3.8C314.406 4.43 313.916 5.095 313.566 5.795L288.366 66.065C287.526 68.095 286.406 69.6 285.006 70.58C283.606 71.49 282.101 71.945 280.491 71.945C279.441 71.945 278.496 71.77 277.656 71.42C276.816 71.14 276.081 70.79 275.451 70.37C274.821 69.95 274.331 69.565 273.981 69.215C273.701 68.865 273.561 68.69 273.561 68.69L276.186 62.915C276.746 64.245 277.481 65.295 278.391 66.065C279.301 66.765 280.246 67.115 281.226 67.115C281.856 67.115 282.486 66.905 283.116 66.485C283.816 65.995 284.411 65.26 284.901 64.28L288.996 54.305L267.156 6.11C266.176 4.01 264.636 2.89 262.536 2.75V1.7Z" fill="url(#paint4_linear_2_7450)"/>
<path d="M323.64 69.95H324.165C324.725 69.95 325.215 69.775 325.635 69.425C326.055 69.005 326.405 68.515 326.685 67.955C326.965 67.325 327.175 66.695 327.315 66.065C327.455 65.365 327.525 64.735 327.525 64.175V8.21C327.525 7.72 327.42 7.16 327.21 6.53C327.07 5.9 326.86 5.305 326.58 4.745C326.3 4.185 325.95 3.73 325.53 3.38C325.11 2.96 324.655 2.75 324.165 2.75H323.64V1.7H377.4V2.75H376.56C376.07 2.75 375.65 2.96 375.3 3.38C374.95 3.73 374.635 4.22 374.355 4.85C374.145 5.41 373.97 6.005 373.83 6.635C373.69 7.265 373.62 7.79 373.62 8.21V64.175C373.62 64.735 373.655 65.33 373.725 65.96C373.865 66.59 374.04 67.22 374.25 67.85C374.53 68.41 374.845 68.9 375.195 69.32C375.615 69.74 376.07 69.95 376.56 69.95H377.4V71H362.7V69.95H363.645C364.135 69.95 364.555 69.74 364.905 69.32C365.325 68.9 365.64 68.41 365.85 67.85C366.13 67.29 366.305 66.695 366.375 66.065C366.515 65.365 366.585 64.735 366.585 64.175V5.375H334.56V64.175C334.56 64.735 334.63 65.365 334.77 66.065C334.91 66.695 335.085 67.29 335.295 67.85C335.575 68.41 335.925 68.9 336.345 69.32C336.765 69.74 337.255 69.95 337.815 69.95H338.34V71H323.64V69.95Z" fill="url(#paint5_linear_2_7450)"/>
<path d="M429.314 69.95H429.839C430.329 69.95 430.784 69.775 431.204 69.425C431.624 69.005 431.974 68.515 432.254 67.955C432.604 67.325 432.849 66.695 432.989 66.065C433.129 65.365 433.199 64.735 433.199 64.175V35.615H399.599V64.175C399.599 64.735 399.669 65.365 399.809 66.065C399.949 66.695 400.159 67.29 400.439 67.85C400.719 68.41 401.034 68.9 401.384 69.32C401.804 69.74 402.294 69.95 402.854 69.95H403.379V71H388.679V69.95H389.204C389.694 69.95 390.149 69.775 390.569 69.425C390.989 69.005 391.339 68.515 391.619 67.955C391.969 67.325 392.214 66.695 392.354 66.065C392.494 65.365 392.564 64.735 392.564 64.175V8.21C392.564 7.72 392.494 7.16 392.354 6.53C392.214 5.9 392.004 5.305 391.724 4.745C391.444 4.185 391.094 3.73 390.674 3.38C390.254 2.96 389.764 2.75 389.204 2.75H388.679V1.7H403.379V2.75H402.854C402.294 2.75 401.804 2.96 401.384 3.38C400.964 3.73 400.614 4.185 400.334 4.745C400.124 5.305 399.949 5.9 399.809 6.53C399.669 7.16 399.599 7.72 399.599 8.21V31.94H433.199V8.21C433.199 7.72 433.129 7.16 432.989 6.53C432.849 5.9 432.639 5.305 432.359 4.745C432.079 4.185 431.729 3.73 431.309 3.38C430.889 2.96 430.399 2.75 429.839 2.75H429.314V1.7H444.014V2.75H443.489C442.929 2.75 442.439 2.96 442.019 3.38C441.599 3.73 441.249 4.185 440.969 4.745C440.759 5.305 440.584 5.9 440.444 6.53C440.304 7.16 440.234 7.72 440.234 8.21V64.175C440.234 64.735 440.304 65.365 440.444 66.065C440.654 66.695 440.899 67.29 441.179 67.85C441.459 68.41 441.774 68.9 442.124 69.32C442.544 69.74 442.999 69.95 443.489 69.95H444.014V71H429.314V69.95Z" fill="url(#paint6_linear_2_7450)"/>
<path d="M452.947 69.95H453.472C453.962 69.95 454.417 69.775 454.837 69.425C455.257 69.005 455.607 68.515 455.887 67.955C456.167 67.395 456.377 66.8 456.517 66.17C456.727 65.54 456.832 64.98 456.832 64.49V8.525C456.832 8.035 456.762 7.44 456.622 6.74C456.482 6.04 456.237 5.41 455.887 4.85C455.607 4.29 455.257 3.8 454.837 3.38C454.417 2.96 453.962 2.75 453.472 2.75H452.947V1.7H467.752V2.75H467.017C466.037 2.89 465.267 3.66 464.707 5.06C464.147 6.39 463.867 7.545 463.867 8.525V31.1H469.747C472.967 31.1 476.117 31.45 479.197 32.15C482.347 32.78 485.112 33.9 487.492 35.51C489.942 37.05 491.902 39.115 493.372 41.705C494.842 44.225 495.577 47.375 495.577 51.155C495.577 54.235 494.947 57 493.687 59.45C492.427 61.9 490.712 64 488.542 65.75C486.372 67.43 483.782 68.725 480.772 69.635C477.832 70.545 474.647 71 471.217 71H452.947V69.95ZM465.442 67.325C473.562 67.325 479.372 65.925 482.872 63.125C486.442 60.325 488.227 56.475 488.227 51.575C488.227 46.605 486.442 42.545 482.872 39.395C479.372 36.245 474.192 34.67 467.332 34.67H463.867V67.325H465.442ZM502.612 1.7H517.417V2.75H516.577C516.087 2.82 515.632 3.065 515.212 3.485C514.862 3.905 514.547 4.395 514.267 4.955C514.057 5.445 513.882 6.005 513.742 6.635C513.602 7.195 513.532 7.72 513.532 8.21V64.175C513.532 64.735 513.602 65.33 513.742 65.96C513.882 66.59 514.092 67.22 514.372 67.85C514.652 68.41 514.967 68.9 515.317 69.32C515.737 69.67 516.192 69.88 516.682 69.95H517.417V71H502.612V69.95H503.137C503.697 69.95 504.187 69.775 504.607 69.425C505.027 69.005 505.377 68.515 505.657 67.955C505.937 67.325 506.147 66.695 506.287 66.065C506.427 65.365 506.497 64.735 506.497 64.175V8.21C506.497 7.72 506.427 7.16 506.287 6.53C506.147 5.9 505.937 5.305 505.657 4.745C505.377 4.185 505.027 3.73 504.607 3.38C504.187 2.96 503.697 2.75 503.137 2.75H502.612V1.7Z" fill="url(#paint7_linear_2_7450)"/>
<path d="M527.488 69.95H528.013C528.573 69.95 529.063 69.775 529.483 69.425C529.903 69.005 530.253 68.515 530.533 67.955C530.883 67.395 531.128 66.8 531.268 66.17C531.478 65.54 531.583 64.945 531.583 64.385V8.21C531.583 7.72 531.478 7.16 531.268 6.53C531.128 5.9 530.883 5.305 530.533 4.745C530.253 4.185 529.903 3.73 529.483 3.38C529.063 2.96 528.573 2.75 528.013 2.75H527.488V1.7H567.913V11.465H566.863C566.723 9.855 566.093 8.455 564.973 7.265C563.853 6.005 562.103 5.375 559.723 5.375H538.618V31.94H556.048C557.658 31.94 558.988 31.45 560.038 30.47C561.158 29.49 561.718 28.335 561.718 27.005H562.768V40.13H561.718C561.718 38.87 561.193 37.785 560.143 36.875C559.093 35.965 557.728 35.51 556.048 35.51H538.618V67.325H561.613C562.943 67.325 564.098 67.01 565.078 66.38C566.058 65.75 566.863 65.015 567.493 64.175C568.193 63.265 568.683 62.32 568.963 61.34C569.313 60.29 569.488 59.415 569.488 58.715H570.538V71H527.488V69.95Z" fill="url(#paint8_linear_2_7450)"/>
<path d="M234.527 101.69C235.983 100.17 237.535 98.6817 239.182 97.225C240.828 95.705 242.285 94.945 243.552 94.945C244.882 94.945 245.895 95.3567 246.592 96.18C247.352 96.94 247.732 97.9533 247.732 99.22C247.732 102.45 245.135 109.385 239.942 120.025L235.477 119.74C235.477 119.677 236.395 117.492 238.232 113.185C240.132 108.942 241.082 105.997 241.082 104.35C241.082 102.703 240.543 101.88 239.467 101.88C238.643 101.88 237.218 103.4 235.192 106.44C234.432 107.58 233.292 108.625 231.772 109.575C230.315 110.525 228.732 111 227.022 111C225.375 111 224.013 110.335 222.937 109.005C221.86 107.675 221.322 105.997 221.322 103.97C221.322 101.943 221.67 99.3783 222.367 96.275C219.39 100.898 216.192 104.508 212.772 107.105C209.415 109.702 206.565 111 204.222 111C200.675 111 198.902 108.878 198.902 104.635C198.902 100.392 200.358 94.6917 203.272 87.535C206.248 80.315 208.37 76.1983 209.637 75.185L214.197 77.18C211.6 81.36 209.637 85.4767 208.307 89.53C206.977 93.5833 206.312 96.3067 206.312 97.7C206.312 99.03 206.723 100.107 207.547 100.93C208.433 101.753 209.447 102.165 210.587 102.165C213.12 102.165 216.255 99.8533 219.992 95.23C223.792 90.5433 227.655 83.5767 231.582 74.33L236.427 76.515C236.3 77.0217 234.843 80.695 232.057 87.535C229.333 94.375 227.972 98.4917 227.972 99.885C227.972 101.215 228.257 102.228 228.827 102.925C229.46 103.558 230.22 103.875 231.107 103.875C231.993 103.875 233.133 103.147 234.527 101.69Z" fill="#7B9F6E"/>
<path d="M276.973 99.79L279.158 101.5C277.195 104.223 274.503 106.503 271.083 108.34C267.663 110.113 264.338 111 261.108 111C257.878 111 255.282 110.05 253.318 108.15C251.355 106.25 250.373 103.748 250.373 100.645C250.373 94.8183 253.445 89.0867 259.588 83.45C265.795 77.8133 272.065 74.995 278.398 74.995C282.578 74.995 284.668 76.6417 284.668 79.935C284.668 83.355 282.452 86.8067 278.018 90.29C273.648 93.7733 267.473 96.94 259.493 99.79C260.063 101.247 260.95 102.387 262.153 103.21C263.357 104.033 264.592 104.445 265.858 104.445C268.582 104.445 272.287 102.893 276.973 99.79ZM259.018 96.94C264.148 95.1667 268.55 92.95 272.223 90.29C275.897 87.63 277.733 85.1917 277.733 82.975C277.733 82.1517 277.417 81.4233 276.783 80.79C276.15 80.1567 275.422 79.84 274.598 79.84C271.622 79.84 268.392 81.7083 264.908 85.445C261.488 89.1183 259.525 92.95 259.018 96.94Z" fill="#7B9F6E"/>
<path d="M326.788 74.045L330.493 74.9C330.43 75.3433 329.511 77.275 327.738 80.695C326.028 84.0517 324.191 88.485 322.228 93.995C320.265 99.4417 318.998 104.952 318.428 110.525L312.348 110.05C312.348 106.567 313.456 102.07 315.673 96.56C315.103 96.4967 313.931 96.465 312.158 96.465C310.448 96.465 307.281 96.8767 302.658 97.7C299.428 104.92 297.813 111.095 297.813 116.225L291.448 115.37C291.448 110.873 293.126 105.332 296.483 98.745C293.253 99.2517 290.023 100.012 286.793 101.025L285.843 97.32C285.843 97.13 287.521 96.5917 290.878 95.705C294.298 94.8183 296.831 94.2483 298.478 93.995C303.545 82.3417 306.996 75.5967 308.833 73.76L312.918 75.375C312.601 76.0083 311.873 77.4333 310.733 79.65C307.883 85.16 305.951 89.4667 304.938 92.57C310.448 92 313.741 91.715 314.818 91.715C315.958 91.715 316.908 91.7467 317.668 91.81C322.101 81.6133 325.141 75.6917 326.788 74.045Z" fill="#7B9F6E"/>
<path d="M354.842 88.865C358.325 88.7383 360.067 90.1633 360.067 93.14C360.067 97.0667 357.945 100.962 353.702 104.825C349.522 108.625 345.31 110.525 341.067 110.525C337.077 110.525 335.082 107.833 335.082 102.45C335.082 98.2067 336.127 92.95 338.217 86.68C340.37 80.3467 342.144 75.8817 343.537 73.285L347.812 74.71C346.165 79.5233 344.487 85.4133 342.777 92.38L344.012 91.81C348.255 89.8467 351.865 88.865 354.842 88.865ZM353.322 98.65C353.702 97.7633 353.892 96.94 353.892 96.18C353.702 94.47 352.214 93.615 349.427 93.615C348.097 93.615 345.627 94.185 342.017 95.325C341.51 97.225 341.257 98.935 341.257 100.455C341.257 101.912 341.605 103.083 342.302 103.97C343.062 104.857 344.044 105.3 345.247 105.3C346.514 105.3 348.002 104.667 349.712 103.4C351.422 102.07 352.625 100.487 353.322 98.65ZM369.187 97.51L366.337 110.05L360.922 109.195C362.189 101.532 363.772 94.4067 365.672 87.82C367.635 81.2333 369.504 76.515 371.277 73.665L375.932 74.235C373.652 80.125 371.404 87.8833 369.187 97.51Z" fill="#7B9F6E"/>
<defs>
<linearGradient id="paint0_linear_2_7450" x1="258.964" y1="19.1436" x2="258.964" y2="88.6029" gradientUnits="userSpaceOnUse">
<stop/>
<stop offset="1"/>
</linearGradient>
<linearGradient id="paint1_linear_2_7450" x1="258.964" y1="19.1436" x2="258.964" y2="88.6029" gradientUnits="userSpaceOnUse">
<stop/>
<stop offset="1"/>
</linearGradient>
<linearGradient id="paint2_linear_2_7450" x1="258.964" y1="19.1436" x2="258.964" y2="88.6029" gradientUnits="userSpaceOnUse">
<stop/>
<stop offset="1"/>
</linearGradient>
<linearGradient id="paint3_linear_2_7450" x1="258.964" y1="19.1436" x2="258.964" y2="88.6029" gradientUnits="userSpaceOnUse">
<stop/>
<stop offset="1"/>
</linearGradient>
<linearGradient id="paint4_linear_2_7450" x1="258.964" y1="19.1436" x2="258.964" y2="88.6029" gradientUnits="userSpaceOnUse">
<stop/>
<stop offset="1"/>
</linearGradient>
<linearGradient id="paint5_linear_2_7450" x1="258.964" y1="19.1436" x2="258.964" y2="88.6029" gradientUnits="userSpaceOnUse">
<stop/>
<stop offset="1"/>
</linearGradient>
<linearGradient id="paint6_linear_2_7450" x1="258.964" y1="19.1436" x2="258.964" y2="88.6029" gradientUnits="userSpaceOnUse">
<stop/>
<stop offset="1"/>
</linearGradient>
<linearGradient id="paint7_linear_2_7450" x1="258.964" y1="19.1436" x2="258.964" y2="88.6029" gradientUnits="userSpaceOnUse">
<stop/>
<stop offset="1"/>
</linearGradient>
<linearGradient id="paint8_linear_2_7450" x1="258.964" y1="19.1436" x2="258.964" y2="88.6029" gradientUnits="userSpaceOnUse">
<stop/>
<stop offset="1"/>
</linearGradient>
</defs>
</svg>
