<svg width="485" height="157" viewBox="0 0 485 157" fill="none" xmlns="http://www.w3.org/2000/svg">
<path d="M0.749512 82.75H1.37451C2.04118 82.75 2.62451 82.5 3.12451 82C3.62451 81.5 4.04118 80.9167 4.37451 80.25C4.79118 79.5833 5.08285 78.875 5.24951 78.125C5.41618 77.2917 5.49951 76.5417 5.49951 75.875V9.25C5.49951 8.66667 5.41618 8 5.24951 7.25C5.08285 6.5 4.79118 5.79167 4.37451 5.125C4.04118 4.45833 3.62451 3.91667 3.12451 3.5C2.62451 3 2.08285 2.75 1.49951 2.75H0.874512V1.5H18.6245V2.75H17.9995C17.3328 2.75 16.7495 3 16.2495 3.5C15.7495 3.91667 15.2912 4.45833 14.8745 5.125C14.5412 5.79167 14.2495 6.5 13.9995 7.25C13.8328 8 13.7495 8.66667 13.7495 9.25V35.125L42.7495 6.25C43.4162 5.58333 43.7495 4.79167 43.7495 3.875C43.7495 3.125 43.4162 2.75 42.7495 2.75V1.5H56.2495V2.75C54.5828 2.83333 53.0828 3.33333 51.7495 4.25C50.4995 5.16667 49.1245 6.375 47.6245 7.875L17.9995 37.5C23.4162 37.6667 27.7912 38.8333 31.1245 41C34.4578 43.1667 37.0828 46.1667 38.9995 50L48.8745 70C49.4578 71.25 50.2078 72.625 51.1245 74.125C52.1245 75.5417 53.2078 76.9167 54.3745 78.25C55.6245 79.5 56.9995 80.5833 58.4995 81.5C59.9995 82.3333 61.5828 82.75 63.2495 82.75V84H56.9995C54.5828 84 52.4995 83.6667 50.7495 83C48.9995 82.25 47.4578 81.2917 46.1245 80.125C44.8745 78.875 43.7495 77.5 42.7495 76C41.8328 74.5 40.9995 73 40.2495 71.5L30.1245 51.375C28.5412 48.2917 26.3328 45.9583 23.4995 44.375C20.7495 42.7083 17.4995 41.7917 13.7495 41.625V75.875C13.7495 76.5417 13.8328 77.25 13.9995 78C14.1662 78.75 14.4162 79.5 14.7495 80.25C15.0828 80.9167 15.4995 81.5 15.9995 82C16.4995 82.4167 17.0412 82.6667 17.6245 82.75H18.4995V84H0.749512V82.75Z" fill="url(#paint0_linear_2_7063)"/>
<path d="M70.5708 1.5H88.3208C97.5708 1.5 104.571 3.29167 109.321 6.875C114.154 10.375 116.571 15.375 116.571 21.875C116.571 25.375 115.737 28.5 114.071 31.25C112.404 34 110.196 36.3333 107.446 38.25C104.779 40.0833 101.737 41.5 98.3208 42.5C94.9875 43.5 91.6541 44 88.3208 44H83.5708V75.875C83.5708 76.5417 83.6541 77.2917 83.8208 78.125C83.9875 78.875 84.2375 79.5833 84.5708 80.25C84.9875 80.9167 85.4041 81.5 85.8208 82C86.3208 82.5 86.9041 82.75 87.5708 82.75H88.1958V84H70.5708V82.75H71.1958C71.7791 82.75 72.3208 82.5 72.8208 82C73.3208 81.5 73.7375 80.9167 74.0708 80.25C74.4041 79.5833 74.6541 78.875 74.8208 78.125C74.9875 77.2917 75.0708 76.5417 75.0708 75.875V9.25C75.0708 8.08333 74.7375 6.75 74.0708 5.25C73.4041 3.75 72.4458 2.91667 71.1958 2.75H70.5708V1.5ZM83.5708 5.87501V39.625H87.3208C90.6541 39.625 93.6125 39.1667 96.1958 38.25C98.8625 37.3333 101.071 36.125 102.821 34.625C104.571 33.125 105.904 31.4167 106.821 29.5C107.737 27.5833 108.196 25.625 108.196 23.625C108.196 21.2083 107.779 18.9583 106.946 16.875C106.196 14.7083 104.904 12.8333 103.071 11.25C101.321 9.58333 98.9875 8.29167 96.0708 7.375C93.1541 6.375 89.5708 5.87501 85.3208 5.87501H83.5708Z" fill="url(#paint1_linear_2_7063)"/>
<path d="M156.043 82.75H156.668C158.668 82.75 159.668 81.8333 159.668 80C159.668 79.3333 159.543 78.625 159.293 77.875L148.043 47.5H126.168L115.293 77.375C115.043 78.0417 114.918 78.6667 114.918 79.25C114.918 80.3333 115.21 81.2083 115.793 81.875C116.377 82.4583 117.002 82.75 117.668 82.75H118.293V84H104.418V82.75H105.043C106.127 82.75 107.168 82.125 108.168 80.875C109.252 79.5417 110.127 78 110.793 76.25L139.418 0L167.418 75.5C168.002 77.1667 168.793 78.7917 169.793 80.375C170.877 81.9583 172.252 82.75 173.918 82.75H174.543V84H156.043V82.75ZM127.418 43.25H146.668L137.043 17.125L127.418 43.25Z" fill="url(#paint2_linear_2_7063)"/>
<path d="M226.024 4.75001C219.857 4.75001 214.482 5.875 209.899 8.125C205.399 10.2917 201.649 13.1667 198.649 16.75C195.649 20.25 193.399 24.2083 191.899 28.625C190.482 33.0417 189.774 37.4167 189.774 41.75C189.774 46.6667 190.732 51.5 192.649 56.25C194.566 60.9167 197.191 65.0833 200.524 68.75C203.941 72.3333 207.899 75.25 212.399 77.5C216.899 79.6667 221.774 80.75 227.024 80.75C228.524 80.75 230.274 80.5833 232.274 80.25C234.357 79.9167 236.399 79.2917 238.399 78.375C240.399 77.375 242.232 76 243.899 74.25C245.649 72.5 246.982 70.2083 247.899 67.375H249.149V81.25C247.899 81.25 246.566 81.4167 245.149 81.75C243.816 82.0833 242.316 82.4583 240.649 82.875C238.482 83.4583 236.066 84 233.399 84.5C230.816 85 228.066 85.25 225.149 85.25C217.899 85.25 211.524 84 206.024 81.5C200.524 79 195.941 75.75 192.274 71.75C188.607 67.75 185.857 63.25 184.024 58.25C182.191 53.1667 181.274 48.0417 181.274 42.875C181.274 37.7083 182.191 32.5833 184.024 27.5C185.857 22.4167 188.649 17.875 192.399 13.875C196.149 9.79167 200.857 6.5 206.524 4C212.191 1.5 218.857 0.250004 226.524 0.250004C229.274 0.250004 231.732 0.500003 233.899 1C236.149 1.5 238.149 2 239.899 2.50001C241.149 2.91667 242.274 3.25 243.274 3.5C244.357 3.66667 245.399 3.75 246.399 3.75V17.625H245.149C244.649 15.0417 243.732 12.9167 242.399 11.25C241.066 9.5 239.482 8.16667 237.649 7.25C235.899 6.33334 233.982 5.70834 231.899 5.37501C229.899 4.95834 227.941 4.75001 226.024 4.75001Z" fill="url(#paint3_linear_2_7063)"/>
<path d="M309.655 82.75H310.28C310.946 82.75 311.53 82.5417 312.03 82.125C312.53 81.625 312.946 81.0417 313.28 80.375C313.696 79.625 313.988 78.875 314.155 78.125C314.321 77.2917 314.405 76.5417 314.405 75.875V18.625L272.905 74.75V75.875C272.905 76.5417 272.988 77.2917 273.155 78.125C273.405 78.875 273.696 79.5833 274.03 80.25C274.363 80.9167 274.78 81.5 275.28 82C275.78 82.5 276.363 82.75 277.03 82.75H277.655V84H259.905V82.75H260.53C261.196 82.75 261.78 82.5417 262.28 82.125C262.78 81.625 263.196 81.0417 263.53 80.375C263.946 79.625 264.238 78.875 264.405 78.125C264.571 77.2917 264.655 76.5417 264.655 75.875V9.25C264.655 8.66667 264.571 8 264.405 7.25C264.238 6.5 263.946 5.79167 263.53 5.125C263.196 4.45833 262.78 3.91667 262.28 3.5C261.78 3 261.196 2.75 260.53 2.75H259.905V1.5H277.655V2.75H276.655C276.071 2.83333 275.53 3.125 275.03 3.62501C274.613 4.125 274.238 4.70834 273.905 5.37501C273.571 5.95834 273.321 6.625 273.155 7.375C272.988 8.04167 272.905 8.66667 272.905 9.25V67L314.405 10.875V9.25C314.405 8.66667 314.321 8 314.155 7.25C313.988 6.5 313.696 5.79167 313.28 5.125C312.946 4.45833 312.53 3.91667 312.03 3.5C311.53 3 310.946 2.75 310.28 2.75H309.655V1.5H327.405V2.75H326.78C326.113 2.75 325.53 3 325.03 3.5C324.53 3.91667 324.113 4.45833 323.78 5.125C323.446 5.79167 323.155 6.5 322.905 7.25C322.738 8 322.655 8.66667 322.655 9.25V75.875C322.655 76.5417 322.738 77.25 322.905 78C323.155 78.75 323.446 79.5 323.78 80.25C324.113 80.9167 324.53 81.5 325.03 82C325.53 82.5 326.113 82.75 326.78 82.75H327.405V84H309.655V82.75Z" fill="url(#paint4_linear_2_7063)"/>
<path d="M339.25 82.75H339.875C340.459 82.75 341 82.5 341.5 82C342 81.5 342.417 80.9167 342.75 80.25C343.167 79.5833 343.459 78.875 343.625 78.125C343.792 77.2917 343.875 76.5417 343.875 75.875V9.37501C343.875 8.79167 343.792 8.125 343.625 7.375C343.459 6.625 343.167 5.91667 342.75 5.25C342.417 4.5 341.959 3.91667 341.375 3.5C340.875 3 340.292 2.75 339.625 2.75H339V1.5H359.5C367.25 1.5 373.292 3.20834 377.625 6.625C382.042 10.0417 384.25 14.5833 384.25 20.25C384.25 22.6667 383.834 24.8333 383 26.75C382.167 28.6667 381.084 30.375 379.75 31.875C378.5 33.375 377.125 34.6667 375.625 35.75C374.125 36.75 372.709 37.5833 371.375 38.25C374.875 38.9167 377.792 40.0417 380.125 41.625C382.459 43.2083 384.334 45.0417 385.75 47.125C387.25 49.125 388.292 51.2917 388.875 53.625C389.459 55.9583 389.75 58.25 389.75 60.5C389.75 64.8333 388.959 68.5 387.375 71.5C385.792 74.4167 383.667 76.8333 381 78.75C378.417 80.5833 375.417 81.9167 372 82.75C368.667 83.5833 365.209 84 361.625 84H339.25V82.75ZM381.25 61.25C380.584 54.8333 378.417 49.875 374.75 46.375C371.084 42.875 365.917 41.125 359.25 41.125H352.25V79.875H359.5C366.25 79.875 371.542 78.375 375.375 75.375C379.292 72.2917 381.25 68.0417 381.25 62.625V61.25ZM376.125 21.375C375.875 16.5417 374.167 12.7083 371 9.875C367.917 7.04167 363.75 5.625 358.5 5.625H352.25V37.125H358.75C362.25 37.125 365.084 36.6667 367.25 35.75C369.5 34.8333 371.292 33.6667 372.625 32.25C373.959 30.75 374.875 29.125 375.375 27.375C375.875 25.625 376.125 23.9167 376.125 22.25V21.375Z" fill="url(#paint5_linear_2_7063)"/>
<path d="M442.533 0.250004C449.033 0.250004 454.866 1.41667 460.033 3.75C465.199 6 469.574 9.08334 473.158 13C476.824 16.8333 479.616 21.3333 481.533 26.5C483.533 31.5833 484.533 36.9167 484.533 42.5C484.533 48.75 483.366 54.5 481.033 59.75C478.783 65 475.658 69.5 471.658 73.25C467.658 77 462.991 79.9583 457.658 82.125C452.408 84.2083 446.783 85.25 440.783 85.25C434.366 85.25 428.574 84.0833 423.408 81.75C418.324 79.4167 413.991 76.3333 410.408 72.5C406.908 68.6667 404.199 64.25 402.283 59.25C400.366 54.25 399.408 49.0417 399.408 43.625C399.408 38.2917 400.366 33.0417 402.283 27.875C404.199 22.625 406.991 17.9583 410.658 13.875C414.408 9.79167 418.949 6.5 424.283 4C429.616 1.5 435.699 0.250004 442.533 0.250004ZM442.408 80.875C447.991 80.625 452.866 79.375 457.033 77.125C461.283 74.7917 464.824 71.875 467.658 68.375C470.491 64.7917 472.574 60.875 473.908 56.625C475.324 52.375 476.033 48.1667 476.033 44C476.033 39.4167 475.199 34.7917 473.533 30.125C471.866 25.4583 469.491 21.25 466.408 17.5C463.324 13.6667 459.616 10.5833 455.283 8.25001C451.033 5.83334 446.241 4.625 440.908 4.625C435.741 4.625 431.116 5.79167 427.033 8.125C422.949 10.375 419.449 13.2917 416.533 16.875C413.699 20.4583 411.533 24.4583 410.033 28.875C408.533 33.2917 407.783 37.625 407.783 41.875C407.783 46.4583 408.658 51.0833 410.408 55.75C412.158 60.3333 414.574 64.5 417.658 68.25C420.741 72 424.366 75.0417 428.533 77.375C432.783 79.7083 437.408 80.875 442.408 80.875Z" fill="url(#paint6_linear_2_7063)"/>
<path d="M112.614 112.885L114.609 114.5C113.532 117.16 111.822 119.408 109.479 121.245C107.199 123.082 105.109 124 103.209 124C101.372 124 99.9155 123.367 98.8389 122.1C97.7622 120.77 97.2238 119.06 97.2238 116.97C97.2238 114.88 97.5722 112.188 98.2689 108.895C95.2922 113.582 92.0938 117.255 88.6739 119.915C85.2539 122.575 82.3722 123.905 80.0288 123.905C76.4822 123.905 74.7088 121.783 74.7088 117.54C74.7088 113.297 76.1655 107.597 79.0788 100.44C82.0555 93.22 84.1772 89.1033 85.4438 88.09L90.0038 90.085C87.4072 94.265 85.4438 98.3817 84.1138 102.435C82.7838 106.488 82.1189 109.212 82.1189 110.605C82.1189 111.935 82.5305 113.012 83.3539 113.835C84.2405 114.658 85.2539 115.07 86.3939 115.07C88.9272 115.07 92.0622 112.758 95.7989 108.135C99.5989 103.448 103.462 96.4817 107.389 87.235L112.234 89.42C112.107 89.9267 110.651 93.6 107.864 100.44C105.141 107.28 103.779 111.397 103.779 112.79C103.779 114.12 104.064 115.133 104.634 115.83C105.267 116.527 105.869 116.875 106.439 116.875C107.072 116.875 107.547 116.843 107.864 116.78C108.181 116.717 108.497 116.59 108.814 116.4C109.131 116.21 109.384 116.052 109.574 115.925C109.827 115.798 110.112 115.577 110.429 115.26L111.094 114.5C111.284 114.373 111.537 114.12 111.854 113.74C112.234 113.297 112.487 113.012 112.614 112.885Z" fill="#7B9F6E"/>
<path d="M177.638 94.17C176.118 101.39 175.327 106.647 175.263 109.94C175.263 114.437 176.562 116.685 179.158 116.685C181.945 116.685 184.447 115.482 186.663 113.075C188.88 110.668 189.988 107.85 189.988 104.62C189.988 101.39 188.785 99.775 186.378 99.775C185.682 99.775 184.162 100.187 181.818 101.01L180.678 98.16C184.732 95.31 187.93 93.885 190.273 93.885C194.643 93.885 196.828 96.07 196.828 100.44C196.828 105.57 194.675 110.795 190.368 116.115C186.125 121.372 181.66 124 176.973 124C171.843 124 169.278 120.327 169.278 112.98C169.278 109.497 170.26 103.733 172.223 95.69L164.528 98.54L164.433 96.26C165.067 95.88 167.948 94.74 173.078 92.84C175.232 80.1733 178.208 71.3067 182.008 66.24C185.808 61.11 190.622 58.545 196.448 58.545C199.108 58.545 201.23 59.4 202.813 61.11C204.397 62.82 205.188 65.0367 205.188 67.76C205.188 73.2067 202.687 78.305 197.683 83.055C192.68 87.7417 185.998 91.4467 177.638 94.17ZM178.208 91.32C183.718 88.7867 188.278 85.7467 191.888 82.2C195.498 78.6533 197.303 75.4233 197.303 72.51C197.303 70.99 196.86 69.755 195.973 68.805C195.087 67.855 193.978 67.38 192.648 67.38C189.988 67.38 187.36 69.2483 184.763 72.985C182.167 76.7217 179.982 82.8333 178.208 91.32Z" fill="#7B9F6E"/>
<path d="M279.561 110.51L281.841 112.41C280.322 115.893 277.883 118.68 274.526 120.77C271.17 122.86 267.908 123.905 264.742 123.905C261.638 123.905 259.042 122.923 256.952 120.96C254.925 118.997 253.911 116.305 253.911 112.885C253.911 109.465 255.4 105.76 258.376 101.77C261.353 97.78 265.185 94.4867 269.871 91.89C274.621 89.2933 279.277 87.995 283.837 87.995C284.47 87.995 285.42 88.0583 286.686 88.185L286.401 91.89C279.435 92.2067 273.64 94.3283 269.017 98.255C264.457 102.182 262.177 106.362 262.177 110.795C262.177 112.632 262.746 114.12 263.887 115.26C265.027 116.4 266.515 116.97 268.352 116.97C271.265 116.97 275.001 114.817 279.561 110.51Z" fill="#7B9F6E"/>
<path d="M304.524 106.52C309.338 99.3 313.518 94.3917 317.064 91.795C320.611 89.135 323.714 87.805 326.374 87.805C329.034 87.805 331.093 88.6283 332.549 90.275C334.006 91.8583 334.734 93.885 334.734 96.355C334.734 103.195 332.264 109.528 327.324 115.355C322.448 121.118 316.938 124 310.794 124C308.071 124 305.918 123.525 304.334 122.575L306.614 118.49C309.971 118.933 312.029 119.155 312.789 119.155C316.209 119.155 319.408 117.16 322.384 113.17C325.361 109.18 326.849 105.095 326.849 100.915C326.849 99.3317 326.374 98.0333 325.424 97.02C324.538 95.9433 323.366 95.405 321.909 95.405C318.426 95.405 314.468 98.4767 310.034 104.62C305.664 110.763 301.548 118.363 297.684 127.42C293.884 136.54 290.559 146.23 287.709 156.49L282.009 154.495C282.136 154.115 283.339 150.822 285.619 144.615C287.836 138.472 290.021 132.36 292.174 126.28C298.128 109.56 301.104 100.408 301.104 98.825C301.104 94.7717 300.281 91.0983 298.634 87.805L303.384 85.43C305.348 88.1533 306.329 91.035 306.329 94.075C306.329 97.0517 305.728 101.2 304.524 106.52Z" fill="#7B9F6E"/>
<path d="M366.336 95.785C367.983 98.5083 368.806 101.517 368.806 104.81C368.806 109.94 367.033 114.532 363.486 118.585C359.939 122.575 355.759 124.57 350.946 124.57C347.272 124.57 344.391 123.525 342.301 121.435C340.274 119.282 339.261 116.337 339.261 112.6C339.261 106.583 341.604 101.2 346.291 96.45C350.978 91.6367 356.234 89.23 362.061 89.23C363.138 89.23 363.898 89.2617 364.341 89.325L364.626 92.46C359.559 92.46 355.348 93.9167 351.991 96.83C348.634 99.7433 346.956 103.48 346.956 108.04C346.956 110.763 347.621 112.98 348.951 114.69C350.281 116.337 352.213 117.16 354.746 117.16C357.343 117.16 359.401 116.02 360.921 113.74C362.441 111.46 363.201 108.8 363.201 105.76C363.201 102.657 362.599 99.8383 361.396 97.305L366.336 95.785Z" fill="#7B9F6E"/>
<path d="M406.767 113.455L409.142 115.545C405.468 121.562 401.573 124.57 397.457 124.57C395.113 124.57 392.707 123.05 390.237 120.01C387.83 116.97 386.373 114.025 385.867 111.175C385.487 111.872 384.41 113.708 382.637 116.685C380.863 119.662 379.597 122.1 378.837 124L373.137 122.005C374.466 114.215 376.082 106.868 377.982 99.965C379.945 93.0617 381.782 88.2167 383.492 85.43L387.387 86.665C386.246 89.5783 384.346 97.3367 381.686 109.94C385.17 102.783 388.685 97.5583 392.232 94.265C395.778 90.9083 399.673 88.6917 403.917 87.615V93.885C399.357 94.075 394.955 97.1467 390.712 103.1C390.965 107.217 392.168 110.637 394.322 113.36C396.538 116.083 398.628 117.445 400.591 117.445C401.542 117.445 403.6 116.115 406.767 113.455Z" fill="#7B9F6E"/>
<defs>
<linearGradient id="paint0_linear_2_7063" x1="220.162" y1="24.8225" x2="220.162" y2="115.479" gradientUnits="userSpaceOnUse">
<stop/>
<stop offset="1" stop-color="white"/>
</linearGradient>
<linearGradient id="paint1_linear_2_7063" x1="220.162" y1="24.8225" x2="220.162" y2="115.479" gradientUnits="userSpaceOnUse">
<stop/>
<stop offset="1" stop-color="white"/>
</linearGradient>
<linearGradient id="paint2_linear_2_7063" x1="220.162" y1="24.8225" x2="220.162" y2="115.479" gradientUnits="userSpaceOnUse">
<stop/>
<stop offset="1" stop-color="white"/>
</linearGradient>
<linearGradient id="paint3_linear_2_7063" x1="220.162" y1="24.8225" x2="220.162" y2="115.479" gradientUnits="userSpaceOnUse">
<stop/>
<stop offset="1" stop-color="white"/>
</linearGradient>
<linearGradient id="paint4_linear_2_7063" x1="220.162" y1="24.8225" x2="220.162" y2="115.479" gradientUnits="userSpaceOnUse">
<stop/>
<stop offset="1" stop-color="white"/>
</linearGradient>
<linearGradient id="paint5_linear_2_7063" x1="220.162" y1="24.8225" x2="220.162" y2="115.479" gradientUnits="userSpaceOnUse">
<stop/>
<stop offset="1" stop-color="white"/>
</linearGradient>
<linearGradient id="paint6_linear_2_7063" x1="220.162" y1="24.8225" x2="220.162" y2="115.479" gradientUnits="userSpaceOnUse">
<stop/>
<stop offset="1" stop-color="white"/>
</linearGradient>
</defs>
</svg>
