<svg aria-hidden="true" xmlns="http://www.w3.org/2000/svg" xmlns:xlink="http://www.w3.org/1999/xlink"><symbol viewBox="0 0 11 7" fill="none" id="icon-arrow" xmlns="http://www.w3.org/2000/svg">
<path d="M10.8901 0.954253L10.339 0.403228C10.2656 0.329645 10.181 0.292969 10.0854 0.292969C9.98999 0.292969 9.90544 0.329645 9.83201 0.403228L5.50006 4.73495L1.1683 0.403344C1.09483 0.32976 1.01028 0.293085 0.914772 0.293085C0.819222 0.293085 0.734674 0.32976 0.661245 0.403344L0.110259 0.954407C0.0366758 1.02784 0 1.11238 0 1.20793C0 1.30341 0.0367916 1.38795 0.110259 1.46138L5.24653 6.59777C5.31996 6.67124 5.40455 6.70795 5.50006 6.70795C5.59557 6.70795 5.68 6.67124 5.75339 6.59777L10.8901 1.46138C10.9635 1.38792 11 1.30337 11 1.20793C11 1.11238 10.9635 1.02784 10.8901 0.954253Z" fill="currentColor"/>
</symbol><symbol viewBox="0 0 33 16" fill="none" id="icon-arrow-line" xmlns="http://www.w3.org/2000/svg">
<path d="M32.7071 8.70711C33.0976 8.31658 33.0976 7.68342 32.7071 7.29289L26.3431 0.928932C25.9526 0.538408 25.3195 0.538408 24.9289 0.928932C24.5384 1.31946 24.5384 1.95262 24.9289 2.34315L30.5858 8L24.9289 13.6569C24.5384 14.0474 24.5384 14.6805 24.9289 15.0711C25.3195 15.4616 25.9526 15.4616 26.3431 15.0711L32.7071 8.70711ZM0 9H32V7H0V9Z" fill="currentColor"/>
</symbol><symbol viewBox="0 0 72 72" fill="none" id="icon-calc" xmlns="http://www.w3.org/2000/svg">
<path d="M57.375 67.5H14.625C12.7642 67.5 11.25 65.9857 11.25 64.125V25.875C11.25 25.254 11.754 24.75 12.375 24.75C12.996 24.75 13.5 25.254 13.5 25.875V64.125C13.5 64.746 14.004 65.25 14.625 65.25H57.375C57.996 65.25 58.5 64.746 58.5 64.125V7.875C58.5 7.254 57.996 6.75 57.375 6.75H14.625C14.004 6.75 13.5 7.254 13.5 7.875V16.875C13.5 17.496 14.004 18 14.625 18H52.875C53.496 18 54 18.504 54 19.125C54 19.746 53.496 20.25 52.875 20.25H14.625C12.7642 20.25 11.25 18.7358 11.25 16.875V7.875C11.25 6.01425 12.7642 4.5 14.625 4.5H57.375C59.2357 4.5 60.75 6.01425 60.75 7.875V64.125C60.75 65.9857 59.2357 67.5 57.375 67.5Z" fill="currentColor"/>
<path d="M50.625 60.75H48.375C46.5142 60.75 45 59.2358 45 57.375V41.625C45 39.7642 46.5142 38.25 48.375 38.25H50.625C52.4858 38.25 54 39.7642 54 41.625V57.375C54 59.2358 52.4858 60.75 50.625 60.75ZM48.375 40.5C47.754 40.5 47.25 41.004 47.25 41.625V57.375C47.25 57.996 47.754 58.5 48.375 58.5H50.625C51.246 58.5 51.75 57.996 51.75 57.375V41.625C51.75 41.004 51.246 40.5 50.625 40.5H48.375Z" fill="currentColor"/>
<path d="M23.625 60.75H21.375C19.5142 60.75 18 59.2358 18 57.375V55.125C18 53.2642 19.5142 51.75 21.375 51.75H23.625C25.4858 51.75 27 53.2642 27 55.125V57.375C27 59.2358 25.4858 60.75 23.625 60.75ZM21.375 54C20.754 54 20.25 54.504 20.25 55.125V57.375C20.25 57.996 20.754 58.5 21.375 58.5H23.625C24.246 58.5 24.75 57.996 24.75 57.375V55.125C24.75 54.504 24.246 54 23.625 54H21.375Z" fill="currentColor"/>
<path d="M23.625 47.25H21.375C19.5142 47.25 18 45.7358 18 43.875V41.625C18 39.7642 19.5142 38.25 21.375 38.25H23.625C25.4858 38.25 27 39.7642 27 41.625V43.875C27 45.7358 25.4858 47.25 23.625 47.25ZM21.375 40.5C20.754 40.5 20.25 41.004 20.25 41.625V43.875C20.25 44.496 20.754 45 21.375 45H23.625C24.246 45 24.75 44.496 24.75 43.875V41.625C24.75 41.004 24.246 40.5 23.625 40.5H21.375Z" fill="currentColor"/>
<path d="M37.125 47.25H34.875C33.0142 47.25 31.5 45.7358 31.5 43.875V41.625C31.5 39.7642 33.0142 38.25 34.875 38.25H37.125C38.9858 38.25 40.5 39.7642 40.5 41.625V43.875C40.5 45.7358 38.9858 47.25 37.125 47.25ZM34.875 40.5C34.254 40.5 33.75 41.004 33.75 41.625V43.875C33.75 44.496 34.254 45 34.875 45H37.125C37.746 45 38.25 44.496 38.25 43.875V41.625C38.25 41.004 37.746 40.5 37.125 40.5H34.875Z" fill="currentColor"/>
<path d="M23.625 33.75H21.375C19.5142 33.75 18 32.2358 18 30.375V28.125C18 26.2642 19.5142 24.75 21.375 24.75H23.625C25.4858 24.75 27 26.2642 27 28.125V30.375C27 32.2358 25.4858 33.75 23.625 33.75ZM21.375 27C20.754 27 20.25 27.504 20.25 28.125V30.375C20.25 30.996 20.754 31.5 21.375 31.5H23.625C24.246 31.5 24.75 30.996 24.75 30.375V28.125C24.75 27.504 24.246 27 23.625 27H21.375Z" fill="currentColor"/>
<path d="M37.125 33.75H34.875C33.0142 33.75 31.5 32.2358 31.5 30.375V28.125C31.5 26.2642 33.0142 24.75 34.875 24.75H37.125C38.9858 24.75 40.5 26.2642 40.5 28.125V30.375C40.5 32.2358 38.9858 33.75 37.125 33.75ZM34.875 27C34.254 27 33.75 27.504 33.75 28.125V30.375C33.75 30.996 34.254 31.5 34.875 31.5H37.125C37.746 31.5 38.25 30.996 38.25 30.375V28.125C38.25 27.504 37.746 27 37.125 27H34.875Z" fill="currentColor"/>
<path d="M50.625 33.75H48.375C46.5142 33.75 45 32.2358 45 30.375V28.125C45 26.2642 46.5142 24.75 48.375 24.75H50.625C52.4858 24.75 54 26.2642 54 28.125V30.375C54 32.2358 52.4858 33.75 50.625 33.75ZM48.375 27C47.754 27 47.25 27.504 47.25 28.125V30.375C47.25 30.996 47.754 31.5 48.375 31.5H50.625C51.246 31.5 51.75 30.996 51.75 30.375V28.125C51.75 27.504 51.246 27 50.625 27H48.375Z" fill="currentColor"/>
<path d="M37.125 60.75H34.875C33.0142 60.75 31.5 59.2358 31.5 57.375V55.125C31.5 53.2642 33.0142 51.75 34.875 51.75H37.125C38.9858 51.75 40.5 53.2642 40.5 55.125V57.375C40.5 59.2358 38.9858 60.75 37.125 60.75ZM34.875 54C34.254 54 33.75 54.504 33.75 55.125V57.375C33.75 57.996 34.254 58.5 34.875 58.5H37.125C37.746 58.5 38.25 57.996 38.25 57.375V55.125C38.25 54.504 37.746 54 37.125 54H34.875Z" fill="currentColor"/>
<path d="M57.375 67.5H14.625C12.7642 67.5 11.25 65.9857 11.25 64.125V25.875C11.25 25.254 11.754 24.75 12.375 24.75C12.996 24.75 13.5 25.254 13.5 25.875V64.125C13.5 64.746 14.004 65.25 14.625 65.25H57.375C57.996 65.25 58.5 64.746 58.5 64.125V7.875C58.5 7.254 57.996 6.75 57.375 6.75H14.625C14.004 6.75 13.5 7.254 13.5 7.875V16.875C13.5 17.496 14.004 18 14.625 18H52.875C53.496 18 54 18.504 54 19.125C54 19.746 53.496 20.25 52.875 20.25H14.625C12.7642 20.25 11.25 18.7358 11.25 16.875V7.875C11.25 6.01425 12.7642 4.5 14.625 4.5H57.375C59.2357 4.5 60.75 6.01425 60.75 7.875V64.125C60.75 65.9857 59.2357 67.5 57.375 67.5Z" fill="currentColor"/>
<path d="M50.625 60.75H48.375C46.5142 60.75 45 59.2358 45 57.375V41.625C45 39.7642 46.5142 38.25 48.375 38.25H50.625C52.4858 38.25 54 39.7642 54 41.625V57.375C54 59.2358 52.4858 60.75 50.625 60.75ZM48.375 40.5C47.754 40.5 47.25 41.004 47.25 41.625V57.375C47.25 57.996 47.754 58.5 48.375 58.5H50.625C51.246 58.5 51.75 57.996 51.75 57.375V41.625C51.75 41.004 51.246 40.5 50.625 40.5H48.375Z" fill="currentColor"/>
<path d="M23.625 60.75H21.375C19.5142 60.75 18 59.2358 18 57.375V55.125C18 53.2642 19.5142 51.75 21.375 51.75H23.625C25.4858 51.75 27 53.2642 27 55.125V57.375C27 59.2358 25.4858 60.75 23.625 60.75ZM21.375 54C20.754 54 20.25 54.504 20.25 55.125V57.375C20.25 57.996 20.754 58.5 21.375 58.5H23.625C24.246 58.5 24.75 57.996 24.75 57.375V55.125C24.75 54.504 24.246 54 23.625 54H21.375Z" fill="currentColor"/>
<path d="M23.625 47.25H21.375C19.5142 47.25 18 45.7358 18 43.875V41.625C18 39.7642 19.5142 38.25 21.375 38.25H23.625C25.4858 38.25 27 39.7642 27 41.625V43.875C27 45.7358 25.4858 47.25 23.625 47.25ZM21.375 40.5C20.754 40.5 20.25 41.004 20.25 41.625V43.875C20.25 44.496 20.754 45 21.375 45H23.625C24.246 45 24.75 44.496 24.75 43.875V41.625C24.75 41.004 24.246 40.5 23.625 40.5H21.375Z" fill="currentColor"/>
<path d="M37.125 47.25H34.875C33.0142 47.25 31.5 45.7358 31.5 43.875V41.625C31.5 39.7642 33.0142 38.25 34.875 38.25H37.125C38.9858 38.25 40.5 39.7642 40.5 41.625V43.875C40.5 45.7358 38.9858 47.25 37.125 47.25ZM34.875 40.5C34.254 40.5 33.75 41.004 33.75 41.625V43.875C33.75 44.496 34.254 45 34.875 45H37.125C37.746 45 38.25 44.496 38.25 43.875V41.625C38.25 41.004 37.746 40.5 37.125 40.5H34.875Z" fill="currentColor"/>
<path d="M23.625 33.75H21.375C19.5142 33.75 18 32.2358 18 30.375V28.125C18 26.2642 19.5142 24.75 21.375 24.75H23.625C25.4858 24.75 27 26.2642 27 28.125V30.375C27 32.2358 25.4858 33.75 23.625 33.75ZM21.375 27C20.754 27 20.25 27.504 20.25 28.125V30.375C20.25 30.996 20.754 31.5 21.375 31.5H23.625C24.246 31.5 24.75 30.996 24.75 30.375V28.125C24.75 27.504 24.246 27 23.625 27H21.375Z" fill="currentColor"/>
<path d="M37.125 33.75H34.875C33.0142 33.75 31.5 32.2358 31.5 30.375V28.125C31.5 26.2642 33.0142 24.75 34.875 24.75H37.125C38.9858 24.75 40.5 26.2642 40.5 28.125V30.375C40.5 32.2358 38.9858 33.75 37.125 33.75ZM34.875 27C34.254 27 33.75 27.504 33.75 28.125V30.375C33.75 30.996 34.254 31.5 34.875 31.5H37.125C37.746 31.5 38.25 30.996 38.25 30.375V28.125C38.25 27.504 37.746 27 37.125 27H34.875Z" fill="currentColor"/>
<path d="M50.625 33.75H48.375C46.5142 33.75 45 32.2358 45 30.375V28.125C45 26.2642 46.5142 24.75 48.375 24.75H50.625C52.4858 24.75 54 26.2642 54 28.125V30.375C54 32.2358 52.4858 33.75 50.625 33.75ZM48.375 27C47.754 27 47.25 27.504 47.25 28.125V30.375C47.25 30.996 47.754 31.5 48.375 31.5H50.625C51.246 31.5 51.75 30.996 51.75 30.375V28.125C51.75 27.504 51.246 27 50.625 27H48.375Z" fill="currentColor"/>
<path d="M37.125 60.75H34.875C33.0142 60.75 31.5 59.2358 31.5 57.375V55.125C31.5 53.2642 33.0142 51.75 34.875 51.75H37.125C38.9858 51.75 40.5 53.2642 40.5 55.125V57.375C40.5 59.2358 38.9858 60.75 37.125 60.75ZM34.875 54C34.254 54 33.75 54.504 33.75 55.125V57.375C33.75 57.996 34.254 58.5 34.875 58.5H37.125C37.746 58.5 38.25 57.996 38.25 57.375V55.125C38.25 54.504 37.746 54 37.125 54H34.875Z" fill="currentColor"/>
</symbol><symbol viewBox="0 0 28 28" fill="none" id="icon-design" xmlns="http://www.w3.org/2000/svg">
<path d="M23.8711 15.4314L22.7567 14.6057C22.8839 13.748 22.8848 12.8858 22.7595 12.0356L23.8711 11.212C24.0327 11.0922 24.0921 10.8778 24.0151 10.692L22.9413 8.09971C22.8643 7.91383 22.6705 7.80412 22.4718 7.83388L21.1034 8.03748C20.5908 7.3477 19.9806 6.73876 19.284 6.22207L19.4882 4.85018C19.5178 4.65117 19.4082 4.45758 19.2224 4.38063L16.6301 3.30695C16.4443 3.22995 16.2298 3.28934 16.1101 3.451L15.8417 3.8132V1.3737C15.8416 0.616219 15.2254 0 14.468 0H13.5327C12.7752 0 12.159 0.616219 12.159 1.3737V3.81314L11.8906 3.45089C11.7709 3.28923 11.5564 3.2299 11.3706 3.30684L8.77832 4.38052C8.59244 4.45752 8.48284 4.65112 8.51248 4.85007L8.71609 6.21852C8.02637 6.7311 7.41742 7.3413 6.90079 8.03786L5.5289 7.83371C5.32984 7.80402 5.1363 7.91372 5.05935 8.09955L3.98556 10.6918C3.90856 10.8777 3.96795 11.0921 4.12961 11.2118L5.24398 12.0375C5.11683 12.8952 5.1159 13.7574 5.24119 14.6076L4.12961 15.4312C3.96795 15.551 3.90856 15.7654 3.98556 15.9513L5.05935 18.5435C5.13635 18.7294 5.33016 18.8391 5.5289 18.8094L6.89734 18.6058C7.40993 19.2956 8.02013 19.9045 8.71669 20.4212L8.51248 21.7931C8.4829 21.992 8.59249 22.1857 8.77832 22.2626L11.3706 23.3364C11.5564 23.4134 11.7709 23.354 11.8906 23.1924L12.159 22.8301V22.8851C12.159 22.9277 12.1652 22.9702 12.1775 23.011L13.5804 27.6875C13.636 27.873 13.8067 28 14.0003 28C14.1939 28 14.3646 27.873 14.4203 27.6876L15.8232 23.0111C15.8354 22.9703 15.8416 22.9278 15.8416 22.8852V22.8302L16.1101 23.1925C16.1947 23.3068 16.3267 23.3699 16.4624 23.3699C16.5186 23.3699 16.5756 23.3591 16.6301 23.3366L19.2223 22.2628C19.4082 22.1858 19.5178 21.9922 19.4882 21.7932L19.2846 20.4248C19.9743 19.9122 20.5833 19.3019 21.1 18.6055L22.4718 18.8096C22.6709 18.8393 22.8644 18.7296 22.9413 18.5438L24.0151 15.9515C24.0921 15.7656 24.0327 15.5512 23.8711 15.4314ZM13.0358 1.3737C13.0358 1.09971 13.2587 0.876805 13.5327 0.876805H14.468C14.7419 0.876805 14.9648 1.09971 14.9648 1.3737V2.33822H13.0359L13.0358 1.3737ZM13.0358 3.21502H14.9648V4.52391C14.3207 4.452 13.6754 4.45113 13.0358 4.52123V3.21502ZM12.159 16.6113C11.4256 16.1998 10.842 15.5492 10.517 14.7645C9.77872 12.9822 10.5144 10.9516 12.159 10.0324V16.6113ZM14.0003 26.0358L13.1866 23.3236H14.814L14.0003 26.0358ZM14.9648 22.4468H13.0359V9.67766C13.6832 9.50595 14.3465 9.51459 14.9648 9.67909V22.4468ZM12.2219 9.02825C9.85452 10.0089 8.72631 12.7327 9.70691 15.1001C10.1689 16.2156 11.055 17.111 12.159 17.5884V18.6538C10.6292 18.1283 9.41494 16.9921 8.78882 15.4804C7.59855 12.6067 8.96803 9.30043 11.8417 8.11021C14.7154 6.91994 18.0215 8.28937 19.2119 11.163C19.7885 12.5551 19.7885 14.0884 19.2119 15.4804C18.6352 16.8725 17.5511 17.9566 16.1591 18.5333C16.0547 18.5765 15.9486 18.616 15.8417 18.653V17.5873C16.958 17.1059 17.8275 16.2257 18.2938 15.1001C18.7688 13.9533 18.7688 12.6902 18.2938 11.5433C17.3131 9.17596 14.5894 8.04776 12.2219 9.02825ZM15.8416 16.6113V10.0346C16.5561 10.4338 17.1469 11.0657 17.4836 11.8789C17.869 12.8093 17.869 13.8341 17.4836 14.7646C17.1553 15.5573 16.58 16.1998 15.8416 16.6113ZM22.2623 17.8919L20.9645 17.6988C20.7996 17.6743 20.6352 17.7453 20.5401 17.8821C19.9976 18.6619 19.3317 19.3291 18.5612 19.8651C18.4244 19.9603 18.3534 20.1247 18.3779 20.2896L18.5705 21.5837L16.6107 22.3955L15.8416 21.3574V19.5743C16.0625 19.5089 16.2813 19.4317 16.4945 19.3434C18.103 18.6771 19.3556 17.4244 20.0219 15.816C20.6881 14.2076 20.6881 12.4359 20.0219 10.8276C18.6465 7.50728 14.8263 5.92495 11.506 7.30023C8.18567 8.67552 6.60329 12.4957 7.97857 15.8161C8.74075 17.6562 10.2568 19.0149 12.1589 19.5741V21.3576L11.3897 22.3956L9.42992 21.5838L9.62308 20.2861C9.64758 20.1213 9.57659 19.9568 9.43982 19.8617C8.66003 19.3191 7.99284 18.6533 7.4568 17.8828C7.36164 17.746 7.1972 17.6749 7.03237 17.6996L5.73819 17.8921L4.92641 15.9323L5.97766 15.1534C6.11159 15.0542 6.17766 14.8877 6.14818 14.7236C5.98242 13.7997 5.98335 12.8571 6.15108 11.9221C6.1805 11.7581 6.11449 11.5916 5.98056 11.4925L4.9263 10.7113L5.73808 8.75153L7.03581 8.94463C7.20059 8.96913 7.36503 8.89815 7.46019 8.76143C8.00285 7.98159 8.66862 7.3144 9.43905 6.77841C9.57583 6.6833 9.64687 6.51881 9.62231 6.35403L9.42976 5.05985L11.3895 4.24807L12.1685 5.29938C12.2677 5.43331 12.4341 5.49932 12.5982 5.4699C13.522 5.30414 14.4645 5.30507 15.3997 5.4728C15.5636 5.50222 15.7301 5.43616 15.8293 5.30228L16.6104 4.24802L18.5702 5.0598L18.3771 6.35764C18.3526 6.52241 18.4236 6.68686 18.5603 6.78202C19.3402 7.32463 20.0073 7.99039 20.5434 8.76088C20.6385 8.89766 20.8031 8.96881 20.9678 8.94414L22.262 8.75159L23.0737 10.7113L22.0225 11.4903C21.8886 11.5895 21.8225 11.756 21.852 11.92C22.0177 12.8439 22.0168 13.7864 21.8491 14.7214C21.8196 14.8854 21.8857 15.052 22.0196 15.1511L23.0738 15.9323L22.2623 17.8919Z" fill="currentColor"/>
</symbol><symbol viewBox="0 0 30 30" fill="none" id="icon-eye" xmlns="http://www.w3.org/2000/svg">
<path d="M18.7509 15C18.7509 17.0711 17.0721 18.75 15.0009 18.75C12.9299 18.75 11.251 17.0711 11.251 15C11.251 12.9289 12.9299 11.25 15.0009 11.25C17.0721 11.25 18.7509 12.9289 18.7509 15Z" stroke="currentColor" stroke-width="2" stroke-linecap="round" stroke-linejoin="round"/>
<path d="M15.0015 6.25C9.40443 6.25 4.66658 9.9286 3.07373 15C4.66656 20.0714 9.40443 23.75 15.0015 23.75C20.5985 23.75 25.3364 20.0714 26.9293 15C25.3364 9.92864 20.5985 6.25 15.0015 6.25Z" stroke="currentColor" stroke-width="2" stroke-linecap="round" stroke-linejoin="round"/>
</symbol><symbol viewBox="0 0 24 24" fill="none" id="icon-like" xmlns="http://www.w3.org/2000/svg">
<path d="M7.875 6V7.5C6.8415 7.5 6 8.34075 6 9.375H4.5C4.5 7.51425 6.01425 6 7.875 6Z" fill="currentColor"/>
<path d="M16.125 3.75C14.538 3.75 13.0553 4.41075 12 5.5545C10.9447 4.41075 9.462 3.75 7.875 3.75C4.773 3.75 2.25 6.24975 2.25 9.375C2.25 16.1565 12 20.25 12 20.25C12 20.25 21.75 16.1565 21.75 9.375C21.75 6.24975 19.227 3.75 16.125 3.75ZM12 18.5978C10.0335 17.6408 3.75 14.2035 3.75 9.375C3.75 7.10025 5.60025 5.25 7.875 5.25C9.0375 5.25 10.1115 5.7195 10.8975 6.5715L11.4488 7.16925H12.5513L13.1025 6.5715C13.8885 5.7195 14.9625 5.25 16.125 5.25C18.3997 5.25 20.25 7.10025 20.25 9.375C20.25 14.2035 13.9665 17.6408 12 18.5978Z" fill="currentColor"/>
</symbol><symbol viewBox="0 0 13 21" fill="none" id="icon-location" xmlns="http://www.w3.org/2000/svg">
<path d="M10.0994 1.59147C7.91223 0.136178 5.0862 0.136178 2.9003 1.59147C0.0832549 3.46402 -0.818558 7.11312 0.80291 10.0787L6.49986 20.5L12.1968 10.0787C13.8183 7.11312 12.9177 3.46402 10.0994 1.59147ZM11.0718 9.46693L6.50114 17.8288L1.92921 9.46693C0.628448 7.08624 1.35067 4.15902 3.61226 2.65638C4.4897 2.07272 5.49414 1.77962 6.49986 1.77962C7.50558 1.77962 8.51001 2.07144 9.38745 2.6551C11.649 4.15902 12.3725 7.08624 11.0718 9.46693Z" fill="currentColor"/>
<path d="M6.63997 4.07143C4.97046 4.07143 3.61111 5.40492 3.61111 7.04267C3.61111 8.68041 4.97046 10.0139 6.63997 10.0139C8.30947 10.0139 9.66883 8.68041 9.66883 7.04267C9.66883 5.40492 8.31069 4.07143 6.63997 4.07143ZM6.63997 8.82541C5.63802 8.82541 4.82265 8.02555 4.82265 7.04267C4.82265 6.05978 5.63802 5.25992 6.63997 5.25992C7.64191 5.25992 8.45728 6.05978 8.45728 7.04267C8.45728 8.02555 7.64191 8.82541 6.63997 8.82541Z" fill="currentColor"/>
</symbol><symbol viewBox="0 0 28 28" fill="none" id="icon-repair" xmlns="http://www.w3.org/2000/svg">
<path d="M12.502 12.769L8.6461 8.91322L9.76151 7.79785L13.6173 11.6536L14.2521 11.0189L10.2033 6.97005L11.3688 5.80461C11.3781 5.79534 11.3866 5.78569 11.3949 5.77568C11.4042 5.76791 11.4132 5.76003 11.4219 5.75138L13.5299 3.64341C13.703 3.47044 13.7056 3.19065 13.5356 3.0145L13.5117 2.98952C13.4917 2.96854 13.4717 2.94763 13.4511 2.92702C12.3973 1.87327 11.0294 1.24414 9.79181 1.24414C8.95718 1.24414 8.23915 1.52097 7.71541 2.04475C7.70401 2.05611 7.69349 2.06813 7.68347 2.08053C7.67658 2.08657 7.66963 2.09243 7.66311 2.09893L2.88199 6.88014C2.70672 7.05546 2.70672 7.33963 2.88199 7.51496L3.58825 8.22117L3.00503 8.80439L2.29876 8.09804C2.21454 8.01389 2.1004 7.96655 1.98135 7.96655C1.86232 7.96655 1.74817 8.01389 1.66395 8.09804L0.199819 9.56232C0.0245394 9.73765 0.0245394 10.0218 0.199819 10.197L3.27072 13.2679C3.35494 13.3521 3.46908 13.3994 3.58811 13.3994C3.70716 13.3994 3.82137 13.3521 3.90553 13.2679L5.36954 11.8037C5.54482 11.6285 5.54482 11.3443 5.36954 11.169L4.66339 10.4628L5.24662 9.87956L5.95276 10.5858C6.04043 10.6734 6.15528 10.7171 6.27017 10.7171C6.38502 10.7171 6.49993 10.6733 6.58752 10.5858L7.81834 9.35495L11.8672 13.4038L12.502 12.769ZM9.79181 2.14184C10.7067 2.14184 11.7258 2.58186 12.5721 3.33179L11.1046 4.79921L8.71045 2.40505C9.01385 2.23181 9.38035 2.14184 9.79181 2.14184ZM3.58811 12.3157L1.15197 9.87965L1.98135 9.05021L4.41738 11.4863L3.58811 12.3157ZM4.06102 9.79564L3.67215 9.40676L4.22294 8.85597L4.61179 9.24483L4.06102 9.79564ZM6.27017 9.63358L3.83416 7.19749L7.98054 3.05107L10.4167 5.48726L6.27017 9.63358Z" fill="currentColor"/>
<path d="M27.4395 24.2058L18.2042 14.9707L17.5695 15.6054L26.4874 24.5233L25.3721 25.6388L16.454 16.7208L15.8193 17.3556L25.0547 26.591C25.1389 26.6751 25.2531 26.7225 25.3721 26.7225C25.4912 26.7225 25.6054 26.6751 25.6896 26.591L27.4396 24.8407C27.6148 24.6654 27.6148 24.3812 27.4395 24.2058Z" fill="currentColor"/>
<path d="M27.6949 4.11055C27.6441 3.96476 27.5217 3.85544 27.3712 3.821C27.2208 3.78668 27.0631 3.83201 26.9539 3.94123L25.1404 5.75463L23.44 4.05417L25.2536 2.24086C25.3628 2.13165 25.4082 1.97399 25.3738 1.82346C25.3394 1.6729 25.23 1.5506 25.0843 1.49969C24.6321 1.34181 24.159 1.26172 23.6784 1.26172C22.5419 1.26172 21.4735 1.70426 20.67 2.50778C19.8662 3.31138 19.4236 4.3798 19.4236 5.51632C19.4236 6.0661 19.5282 6.59973 19.726 7.09543L8.2734 18.548C7.77778 18.3501 7.24427 18.2457 6.69456 18.2457C5.5581 18.2457 4.48965 18.6883 3.686 19.4919C2.53797 20.6399 2.14222 22.3727 2.67786 23.9062C2.72876 24.052 2.85106 24.1613 3.0016 24.1957C3.15207 24.23 3.30974 24.1848 3.41901 24.0756L5.23249 22.2621L6.93294 23.9623L5.1194 25.7758C5.01018 25.885 4.96481 26.0427 4.99917 26.1932C5.03361 26.3438 5.14294 26.466 5.28871 26.517C5.74081 26.6749 6.21376 26.7549 6.69449 26.7551C6.69462 26.7551 6.69462 26.7551 6.69474 26.7551C7.83095 26.7551 8.8994 26.3123 9.70303 25.5087C10.9406 24.271 11.2543 22.4543 10.6451 20.9226L22.0994 9.46852C22.5951 9.66651 23.1286 9.77097 23.6784 9.77097C23.6785 9.77097 23.6784 9.77097 23.6785 9.77097C24.8148 9.77097 25.8833 9.3285 26.6868 8.52487C27.8349 7.37683 28.2306 5.64406 27.6949 4.11055ZM9.06821 24.874C8.43413 25.5081 7.59124 25.8574 6.69474 25.8574C6.69474 25.8574 6.69456 25.8574 6.69449 25.8574C6.57137 25.8572 6.44884 25.8506 6.32735 25.8375L7.88504 24.2798C7.96926 24.1955 8.01654 24.0814 8.01654 23.9623C8.01654 23.8433 7.96926 23.7291 7.88504 23.645L5.54984 21.3099C5.37464 21.1347 5.0904 21.1347 4.91508 21.3099L3.3584 22.8666C3.25208 21.869 3.59692 20.8506 4.32084 20.1266C4.95492 19.4925 5.79787 19.1433 6.69457 19.1433C7.59119 19.1433 8.43415 19.4925 9.06816 20.1267C10.377 21.4354 10.377 23.5652 9.06821 24.874ZM10.2546 20.0435L9.15106 18.9399L20.0788 8.01227L21.1826 9.11584L10.2546 20.0435ZM26.0521 7.89016C25.418 8.52409 24.5751 8.87325 23.6784 8.87325C22.7817 8.87325 21.9386 8.52411 21.3045 7.89003C20.6706 7.25596 20.3213 6.41299 20.3213 5.5163C20.3213 4.61962 20.6706 3.77666 21.3047 3.14256C21.9386 2.50854 22.7817 2.15938 23.6784 2.15938C23.8016 2.15938 23.9241 2.16606 24.0456 2.17929L22.4879 3.73683C22.4037 3.82098 22.3564 3.93519 22.3564 4.05416C22.3564 4.17327 22.4037 4.28735 22.4879 4.37151L24.8229 6.70666C24.9982 6.88199 25.2825 6.88199 25.4577 6.70679L27.0144 5.15009C27.1207 6.14775 26.776 7.16617 26.0521 7.89016Z" fill="currentColor"/>
</symbol><symbol viewBox="0 0 68 68" fill="none" id="icon-roll" xmlns="http://www.w3.org/2000/svg">
<path d="M25.2553 14.1968H20.1763C19.4283 14.1968 18.8218 14.8032 18.8218 15.5513C18.8218 16.2995 19.4283 16.9059 20.1763 16.9059H25.2553C26.0033 16.9059 26.6099 16.2995 26.6099 15.5513C26.6099 14.8032 26.0033 14.1968 25.2553 14.1968Z" fill="currentColor"/>
<path d="M66.6455 23.1953H45.4321V15.7008C45.4321 12.7622 42.9124 10.1043 38.3375 8.21659C34.1429 6.48578 28.5949 5.53271 22.7161 5.53271C16.8372 5.53271 11.2893 6.48578 7.09458 8.21659C2.51972 10.1043 0 12.7622 0 15.7008V52.2992C0 55.2378 2.51972 57.8958 7.09445 59.7834C11.2892 61.5142 16.837 62.4673 22.7159 62.4673H66.6453C67.3933 62.4673 67.9999 61.8609 67.9999 61.1128V24.5499C68 23.8017 67.3935 23.1953 66.6455 23.1953ZM22.716 8.24196C34.5064 8.24196 42.7229 12.1729 42.7229 15.7008C42.7229 19.2287 34.5068 23.1596 22.7171 23.1597C22.7167 23.1597 22.7164 23.1597 22.716 23.1597C22.7156 23.1597 22.7152 23.1597 22.7148 23.1597C10.9252 23.1596 2.70924 19.2287 2.70924 15.7008C2.70924 12.1729 10.9257 8.24196 22.716 8.24196ZM42.723 20.6538V23.1952H38.3124C38.3207 23.1917 38.3293 23.1885 38.3375 23.1851C40.1216 22.4489 41.5914 21.5953 42.723 20.6538ZM65.2909 59.7579H56.4125V37.6574C56.4125 36.9093 55.806 36.3028 55.058 36.3028C54.31 36.3028 53.7034 36.9093 53.7034 37.6574V59.7581H34.8123V31.975C34.8123 31.2269 34.2057 30.6205 33.4577 30.6205C32.7097 30.6205 32.1032 31.2269 32.1032 31.975V59.7581H22.716C19.3286 59.7581 16.2371 59.4331 13.5498 58.887V31.975C13.5498 31.2269 12.9432 30.6205 12.1952 30.6205C11.4472 30.6205 10.8407 31.2269 10.8407 31.975V58.225C5.77216 56.7569 2.70924 54.4529 2.70924 52.2992V20.6539C3.84054 21.5952 5.31051 22.4489 7.09458 23.1851C11.2154 24.8854 16.6421 25.8344 22.4056 25.8672L65.291 25.9043V59.7579H65.2909Z" fill="currentColor"/>
<path d="M55.0582 30.6206C54.3102 30.6206 53.7036 31.227 53.7036 31.9752V32.9164C53.7036 33.6645 54.3102 34.271 55.0582 34.271C55.8062 34.271 56.4127 33.6645 56.4127 32.9164V31.9752C56.4127 31.227 55.8062 30.6206 55.0582 30.6206Z" fill="currentColor"/>
</symbol><symbol viewBox="0 0 20 20" fill="none" id="icon-styles" xmlns="http://www.w3.org/2000/svg">
<g clip-path="url(#jclip0_9_11477)">
<path fill-rule="evenodd" clip-rule="evenodd" d="M9.62795 0.920983C9.86262 0.803683 10.1387 0.803683 10.3734 0.920983L18.7067 5.08765C18.989 5.22881 19.1673 5.51737 19.1673 5.83301C19.1673 6.14865 18.989 6.43721 18.7067 6.57837L10.3734 10.745C10.1387 10.8623 9.86262 10.8623 9.62795 10.745L1.29464 6.57837C1.01233 6.43721 0.833984 6.14865 0.833984 5.83301C0.833984 5.51737 1.01233 5.22881 1.29464 5.08765L9.62795 0.920983ZM3.53071 5.83301L10.0006 9.06801L16.4706 5.83301L10.0006 2.59803L3.53071 5.83301Z" fill="currentColor"/>
<path d="M0.921166 13.7939C1.12699 13.3822 1.62755 13.2154 2.0392 13.4211L9.99984 17.4015L17.9605 13.4211C18.3722 13.2154 18.8728 13.3822 19.0785 13.7939C19.2843 14.2055 19.1175 14.706 18.7058 14.9119L10.3725 19.0785C10.1379 19.1959 9.86176 19.1959 9.62717 19.0785L1.29385 14.9119C0.882199 14.706 0.715344 14.2055 0.921166 13.7939Z" fill="currentColor"/>
<path d="M2.0392 9.25413C1.62755 9.04838 1.12699 9.21521 0.921166 9.62688C0.715344 10.0385 0.882199 10.539 1.29385 10.7449L9.62717 14.9115C9.86176 15.0289 10.1379 15.0289 10.3725 14.9115L18.7058 10.7449C19.1175 10.539 19.2843 10.0385 19.0785 9.62688C18.8728 9.21521 18.3722 9.04838 17.9605 9.25413L9.99984 13.2345L2.0392 9.25413Z" fill="currentColor"/>
</g>
<defs>
<clipPath id="jclip0_9_11477">
<rect width="20" height="20" fill="currentColor"/>
</clipPath>
</defs>
</symbol></svg>