<svg width="488" height="579" viewBox="0 0 488 579" fill="none" xmlns="http://www.w3.org/2000/svg">
<g filter="url(#filter0_f_2013_186)">
<path d="M77.9865 13.4618C79.188 13.7443 80.3078 12.8652 80.4877 11.4982C80.6675 10.1312 79.8394 8.79399 78.6379 8.5115C77.4364 8.22901 76.3166 9.10817 76.1367 10.4752C75.9569 11.8422 76.7851 13.1793 77.9865 13.4618Z" fill="#7B9F6E"/>
<path d="M108.658 19.6845C109.859 19.967 110.979 19.0878 111.159 17.7208C111.339 16.3538 110.511 15.0166 109.309 14.7342C108.108 14.4517 106.988 15.3308 106.808 16.6978C106.628 18.0648 107.456 19.402 108.658 19.6845Z" fill="#7B9F6E"/>
<path d="M139.33 25.9071C140.531 26.1896 141.651 25.3105 141.831 23.9435C142.011 22.5765 141.183 21.2393 139.981 20.9568C138.78 20.6743 137.66 21.5535 137.48 22.9205C137.3 24.2875 138.128 25.6246 139.33 25.9071Z" fill="#7B9F6E"/>
<path d="M170.001 32.1288C171.203 32.4113 172.322 31.5321 172.502 30.1652C172.682 28.7982 171.854 27.461 170.653 27.1785C169.451 26.896 168.331 27.7752 168.151 29.1422C167.972 30.5091 168.8 31.8463 170.001 32.1288Z" fill="#7B9F6E"/>
<path d="M200.673 38.3515C201.875 38.634 202.994 37.7548 203.174 36.3878C203.354 35.0208 202.526 33.6836 201.324 33.4011C200.123 33.1187 199.003 33.9978 198.823 35.3648C198.643 36.7318 199.472 38.069 200.673 38.3515Z" fill="#7B9F6E"/>
<path d="M231.344 44.5732C232.546 44.8556 233.666 43.9765 233.846 42.6095C234.025 41.2425 233.197 39.9053 231.996 39.6228C230.794 39.3403 229.675 40.2195 229.495 41.5865C229.315 42.9535 230.143 44.2907 231.344 44.5732Z" fill="#7B9F6E"/>
<path d="M262.016 50.7958C263.217 51.0783 264.337 50.1991 264.517 48.8321C264.697 47.4652 263.869 46.128 262.667 45.8455C261.466 45.563 260.346 46.4422 260.166 47.8091C259.986 49.1761 260.814 50.5133 262.016 50.7958Z" fill="#7B9F6E"/>
<path d="M292.688 57.0185C293.889 57.301 295.009 56.4218 295.189 55.0548C295.369 53.6878 294.541 52.3506 293.339 52.0681C292.138 51.7856 291.018 52.6648 290.838 54.0318C290.658 55.3988 291.486 56.736 292.688 57.0185Z" fill="#7B9F6E"/>
<path d="M323.359 63.2401C324.561 63.5226 325.68 62.6435 325.86 61.2765C326.04 59.9095 325.212 58.5723 324.01 58.2898C322.809 58.0073 321.689 58.8865 321.509 60.2535C321.329 61.6205 322.158 62.9576 323.359 63.2401Z" fill="#7B9F6E"/>
<path d="M354.031 69.4628C355.232 69.7453 356.352 68.8661 356.532 67.4991C356.712 66.1321 355.884 64.795 354.682 64.5125C353.481 64.23 352.361 65.1091 352.181 66.4761C352.001 67.8431 352.829 69.1803 354.031 69.4628Z" fill="#7B9F6E"/>
<path d="M384.702 75.6855C385.904 75.968 387.024 75.0888 387.203 73.7218C387.383 72.3548 386.555 71.0176 385.354 70.7351C384.152 70.4526 383.032 71.3318 382.853 72.6988C382.673 74.0658 383.501 75.403 384.702 75.6855Z" fill="#7B9F6E"/>
<path d="M415.374 81.9071C416.575 82.1896 417.695 81.3105 417.875 79.9435C418.055 78.5765 417.227 77.2393 416.025 76.9568C414.824 76.6743 413.704 77.5535 413.524 78.9205C413.344 80.2875 414.172 81.6246 415.374 81.9071Z" fill="#7B9F6E"/>
<path d="M446.046 88.1298C447.247 88.4123 448.367 87.5331 448.547 86.1661C448.727 84.7991 447.898 83.462 446.697 83.1795C445.495 82.897 444.376 83.7761 444.196 85.1431C444.016 86.5101 444.844 87.8473 446.046 88.1298Z" fill="#7B9F6E"/>
<path d="M476.717 94.3525C477.918 94.6349 479.038 93.7558 479.218 92.3888C479.398 91.0218 478.57 89.6846 477.368 89.4021C476.167 89.1196 475.047 89.9988 474.867 91.3658C474.687 92.7328 475.516 94.07 476.717 94.3525Z" fill="#7B9F6E"/>
<path d="M72.3415 53.1396C73.543 53.4221 74.6628 52.5429 74.8427 51.1759C75.0225 49.8089 74.1943 48.4717 72.9929 48.1892C71.7914 47.9067 70.6716 48.7859 70.4917 50.1529C70.3119 51.5199 71.14 52.8571 72.3415 53.1396Z" fill="#7B9F6E"/>
<path d="M103.013 59.3622C104.214 59.6447 105.334 58.7655 105.514 57.3985C105.694 56.0316 104.866 54.6944 103.664 54.4119C102.463 54.1294 101.343 55.0086 101.163 56.3756C100.983 57.7425 101.811 59.0797 103.013 59.3622Z" fill="#7B9F6E"/>
<path d="M133.685 65.5839C134.886 65.8664 136.006 64.9872 136.186 63.6202C136.366 62.2532 135.538 60.9161 134.336 60.6336C133.135 60.3511 132.015 61.2302 131.835 62.5972C131.655 63.9642 132.483 65.3014 133.685 65.5839Z" fill="#7B9F6E"/>
<path d="M164.356 71.8066C165.558 72.089 166.677 71.2099 166.857 69.8429C167.037 68.4759 166.209 67.1387 165.008 66.8562C163.806 66.5737 162.686 67.4529 162.506 68.8199C162.326 70.1869 163.155 71.5241 164.356 71.8066Z" fill="#7B9F6E"/>
<path d="M195.028 78.0292C196.23 78.3117 197.349 77.4325 197.529 76.0655C197.709 74.6985 196.881 73.3614 195.679 73.0789C194.478 72.7964 193.358 73.6755 193.178 75.0425C192.998 76.4095 193.827 77.7467 195.028 78.0292Z" fill="#7B9F6E"/>
<path d="M225.699 84.2509C226.901 84.5334 228.021 83.6542 228.201 82.2872C228.38 80.9202 227.552 79.5831 226.351 79.3006C225.149 79.0181 224.029 79.8972 223.85 81.2642C223.67 82.6312 224.498 83.9684 225.699 84.2509Z" fill="#7B9F6E"/>
<path d="M256.371 90.4735C257.572 90.756 258.692 89.8769 258.872 88.5099C259.052 87.1429 258.224 85.8057 257.022 85.5232C255.821 85.2407 254.701 86.1199 254.521 87.4869C254.341 88.8539 255.169 90.1911 256.371 90.4735Z" fill="#7B9F6E"/>
<path d="M287.043 96.6952C288.244 96.9777 289.364 96.0986 289.544 94.7316C289.724 93.3646 288.896 92.0274 287.694 91.7449C286.493 91.4624 285.373 92.3416 285.193 93.7086C285.013 95.0756 285.841 96.4127 287.043 96.6952Z" fill="#7B9F6E"/>
<path d="M317.714 102.918C318.916 103.2 320.035 102.321 320.215 100.954C320.395 99.5872 319.567 98.25 318.365 97.9676C317.164 97.6851 316.044 98.5642 315.864 99.9312C315.684 101.298 316.513 102.635 317.714 102.918Z" fill="#7B9F6E"/>
<path d="M348.386 109.141C349.587 109.423 350.707 108.544 350.887 107.177C351.067 105.81 350.239 104.473 349.037 104.19C347.836 103.908 346.716 104.787 346.536 106.154C346.356 107.521 347.184 108.858 348.386 109.141Z" fill="#7B9F6E"/>
<path d="M379.057 115.362C380.259 115.645 381.379 114.766 381.558 113.399C381.738 112.032 380.91 110.694 379.709 110.412C378.507 110.129 377.387 111.009 377.208 112.376C377.028 113.743 377.856 115.08 379.057 115.362Z" fill="#7B9F6E"/>
<path d="M409.729 121.585C410.93 121.867 412.05 120.988 412.23 119.621C412.41 118.254 411.582 116.917 410.38 116.635C409.179 116.352 408.059 117.231 407.879 118.598C407.699 119.965 408.527 121.302 409.729 121.585Z" fill="#7B9F6E"/>
<path d="M440.401 127.808C441.602 128.09 442.722 127.211 442.902 125.844C443.082 124.477 442.253 123.14 441.052 122.857C439.85 122.575 438.731 123.454 438.551 124.821C438.371 126.188 439.199 127.525 440.401 127.808Z" fill="#7B9F6E"/>
<path d="M471.072 134.029C472.273 134.312 473.393 133.433 473.573 132.066C473.753 130.699 472.925 129.361 471.723 129.079C470.522 128.796 469.402 129.676 469.222 131.043C469.042 132.41 469.871 133.747 471.072 134.029Z" fill="#7B9F6E"/>
<path d="M66.6965 92.8173C67.898 93.0998 69.0178 92.2206 69.1976 90.8536C69.3775 89.4866 68.5493 88.1495 67.3478 87.867C66.1464 87.5845 65.0266 88.4636 64.8467 89.8306C64.6668 91.1976 65.495 92.5348 66.6965 92.8173Z" fill="#7B9F6E"/>
<path d="M97.3679 99.04C98.5694 99.3224 99.6892 98.4433 99.869 97.0763C100.049 95.7093 99.2207 94.3721 98.0192 94.0896C96.8177 93.8071 95.6979 94.6863 95.5181 96.0533C95.3382 97.4203 96.1664 98.7575 97.3679 99.04Z" fill="#7B9F6E"/>
<path d="M128.04 105.262C129.241 105.544 130.361 104.665 130.541 103.298C130.721 101.931 129.893 100.594 128.691 100.311C127.49 100.029 126.37 100.908 126.19 102.275C126.01 103.642 126.838 104.979 128.04 105.262Z" fill="#7B9F6E"/>
<path d="M158.711 111.484C159.913 111.767 161.032 110.888 161.212 109.521C161.392 108.154 160.564 106.816 159.362 106.534C158.161 106.251 157.041 107.131 156.861 108.498C156.681 109.865 157.51 111.202 158.711 111.484Z" fill="#7B9F6E"/>
<path d="M189.383 117.707C190.584 117.989 191.704 117.11 191.884 115.743C192.064 114.376 191.236 113.039 190.034 112.757C188.833 112.474 187.713 113.353 187.533 114.72C187.353 116.087 188.182 117.424 189.383 117.707Z" fill="#7B9F6E"/>
<path d="M220.054 123.929C221.256 124.211 222.376 123.332 222.556 121.965C222.735 120.598 221.907 119.261 220.706 118.978C219.504 118.696 218.384 119.575 218.205 120.942C218.025 122.309 218.853 123.646 220.054 123.929Z" fill="#7B9F6E"/>
<path d="M250.726 130.151C251.927 130.434 253.047 129.555 253.227 128.188C253.407 126.821 252.579 125.483 251.377 125.201C250.176 124.918 249.056 125.798 248.876 127.165C248.696 128.532 249.524 129.869 250.726 130.151Z" fill="#7B9F6E"/>
<path d="M281.398 136.373C282.599 136.655 283.719 135.776 283.899 134.409C284.079 133.042 283.25 131.705 282.049 131.423C280.848 131.14 279.728 132.019 279.548 133.386C279.368 134.753 280.196 136.09 281.398 136.373Z" fill="#7B9F6E"/>
<path d="M312.069 142.596C313.271 142.878 314.39 141.999 314.57 140.632C314.75 139.265 313.922 137.928 312.72 137.645C311.519 137.363 310.399 138.242 310.219 139.609C310.039 140.976 310.868 142.313 312.069 142.596Z" fill="#7B9F6E"/>
<path d="M342.741 148.818C343.942 149.101 345.062 148.222 345.242 146.855C345.422 145.488 344.594 144.15 343.392 143.868C342.191 143.585 341.071 144.465 340.891 145.832C340.711 147.199 341.539 148.536 342.741 148.818Z" fill="#7B9F6E"/>
<path d="M373.412 155.04C374.614 155.322 375.734 154.443 375.913 153.076C376.093 151.709 375.265 150.372 374.064 150.09C372.862 149.807 371.742 150.686 371.563 152.053C371.383 153.42 372.211 154.757 373.412 155.04Z" fill="#7B9F6E"/>
<path d="M404.084 161.263C405.285 161.545 406.405 160.666 406.585 159.299C406.765 157.932 405.937 156.595 404.735 156.312C403.534 156.03 402.414 156.909 402.234 158.276C402.054 159.643 402.882 160.98 404.084 161.263Z" fill="#7B9F6E"/>
<path d="M434.756 167.485C435.957 167.768 437.077 166.889 437.257 165.522C437.437 164.155 436.608 162.817 435.407 162.535C434.205 162.252 433.086 163.132 432.906 164.499C432.726 165.866 433.554 167.203 434.756 167.485Z" fill="#7B9F6E"/>
<path d="M465.427 173.707C466.628 173.989 467.748 173.11 467.928 171.743C468.108 170.376 467.28 169.039 466.078 168.757C464.877 168.474 463.757 169.353 463.577 170.72C463.397 172.087 464.225 173.424 465.427 173.707Z" fill="#7B9F6E"/>
<path d="M61.0515 132.495C62.253 132.778 63.3728 131.898 63.5526 130.531C63.7325 129.164 62.9043 127.827 61.7028 127.545C60.5013 127.262 59.3815 128.141 59.2017 129.508C59.0218 130.875 59.85 132.213 61.0515 132.495Z" fill="#7B9F6E"/>
<path d="M91.7229 138.717C92.9243 138.999 94.0441 138.12 94.224 136.753C94.4039 135.386 93.5757 134.049 92.3742 133.766C91.1727 133.484 90.0529 134.363 89.8731 135.73C89.6932 137.097 90.5214 138.434 91.7229 138.717Z" fill="#7B9F6E"/>
<path d="M122.395 144.939C123.596 145.222 124.716 144.343 124.896 142.976C125.076 141.609 124.248 140.272 123.046 139.989C121.845 139.707 120.725 140.586 120.545 141.953C120.365 143.32 121.193 144.657 122.395 144.939Z" fill="#7B9F6E"/>
<path d="M153.066 151.162C154.268 151.445 155.387 150.565 155.567 149.198C155.747 147.831 154.919 146.494 153.717 146.212C152.516 145.929 151.396 146.808 151.216 148.175C151.036 149.542 151.865 150.88 153.066 151.162Z" fill="#7B9F6E"/>
<path d="M183.738 157.384C184.939 157.666 186.059 156.787 186.239 155.42C186.419 154.053 185.591 152.716 184.389 152.433C183.188 152.151 182.068 153.03 181.888 154.397C181.708 155.764 182.537 157.101 183.738 157.384Z" fill="#7B9F6E"/>
<path d="M214.409 163.606C215.611 163.889 216.731 163.01 216.911 161.643C217.09 160.276 216.262 158.939 215.061 158.656C213.859 158.374 212.739 159.253 212.56 160.62C212.38 161.987 213.208 163.324 214.409 163.606Z" fill="#7B9F6E"/>
<path d="M245.081 169.829C246.282 170.112 247.402 169.232 247.582 167.865C247.762 166.498 246.934 165.161 245.732 164.879C244.531 164.596 243.411 165.475 243.231 166.842C243.051 168.209 243.879 169.547 245.081 169.829Z" fill="#7B9F6E"/>
<path d="M275.753 176.051C276.954 176.333 278.074 175.454 278.254 174.087C278.434 172.72 277.605 171.383 276.404 171.1C275.203 170.818 274.083 171.697 273.903 173.064C273.723 174.431 274.551 175.768 275.753 176.051Z" fill="#7B9F6E"/>
<path d="M306.424 182.273C307.626 182.556 308.745 181.677 308.925 180.31C309.105 178.943 308.277 177.606 307.075 177.323C305.874 177.041 304.754 177.92 304.574 179.287C304.394 180.654 305.223 181.991 306.424 182.273Z" fill="#7B9F6E"/>
<path d="M337.096 188.496C338.297 188.778 339.417 187.899 339.597 186.532C339.777 185.165 338.949 183.828 337.747 183.546C336.546 183.263 335.426 184.142 335.246 185.509C335.066 186.876 335.894 188.214 337.096 188.496Z" fill="#7B9F6E"/>
<path d="M367.767 194.718C368.969 195 370.089 194.121 370.268 192.754C370.448 191.387 369.62 190.05 368.419 189.767C367.217 189.485 366.097 190.364 365.917 191.731C365.738 193.098 366.566 194.435 367.767 194.718Z" fill="#7B9F6E"/>
<path d="M398.439 200.94C399.64 201.223 400.76 200.344 400.94 198.977C401.12 197.61 400.292 196.273 399.09 195.99C397.889 195.708 396.769 196.587 396.589 197.954C396.409 199.321 397.237 200.658 398.439 200.94Z" fill="#7B9F6E"/>
<path d="M429.111 207.162C430.312 207.445 431.432 206.565 431.612 205.198C431.792 203.831 430.963 202.494 429.762 202.212C428.56 201.929 427.441 202.808 427.261 204.175C427.081 205.542 427.909 206.88 429.111 207.162Z" fill="#7B9F6E"/>
<path d="M459.782 213.385C460.983 213.667 462.103 212.788 462.283 211.421C462.463 210.054 461.635 208.717 460.433 208.434C459.232 208.152 458.112 209.031 457.932 210.398C457.752 211.765 458.58 213.102 459.782 213.385Z" fill="#7B9F6E"/>
<path d="M55.4065 172.173C56.6079 172.455 57.7277 171.576 57.9076 170.209C58.0875 168.842 57.2593 167.505 56.0578 167.222C54.8563 166.94 53.7365 167.819 53.5567 169.186C53.3768 170.553 54.205 171.89 55.4065 172.173Z" fill="#7B9F6E"/>
<path d="M86.0778 178.394C87.2793 178.677 88.3991 177.798 88.579 176.431C88.7588 175.064 87.9307 173.727 86.7292 173.444C85.5277 173.162 84.4079 174.041 84.228 175.408C84.0482 176.775 84.8764 178.112 86.0778 178.394Z" fill="#7B9F6E"/>
<path d="M116.75 184.617C117.951 184.9 119.071 184.02 119.251 182.653C119.431 181.286 118.603 179.949 117.401 179.667C116.2 179.384 115.08 180.263 114.9 181.63C114.72 182.997 115.548 184.335 116.75 184.617Z" fill="#7B9F6E"/>
<path d="M147.421 190.84C148.623 191.122 149.742 190.243 149.922 188.876C150.102 187.509 149.274 186.172 148.072 185.889C146.871 185.607 145.751 186.486 145.571 187.853C145.391 189.22 146.22 190.557 147.421 190.84Z" fill="#7B9F6E"/>
<path d="M178.093 197.061C179.294 197.344 180.414 196.465 180.594 195.098C180.774 193.731 179.946 192.394 178.744 192.111C177.543 191.829 176.423 192.708 176.243 194.075C176.063 195.442 176.891 196.779 178.093 197.061Z" fill="#7B9F6E"/>
<path d="M208.764 203.284C209.966 203.567 211.086 202.687 211.266 201.32C211.445 199.953 210.617 198.616 209.416 198.334C208.214 198.051 207.094 198.93 206.915 200.297C206.735 201.664 207.563 203.002 208.764 203.284Z" fill="#7B9F6E"/>
<path d="M239.436 209.507C240.637 209.789 241.757 208.91 241.937 207.543C242.117 206.176 241.289 204.839 240.087 204.556C238.886 204.274 237.766 205.153 237.586 206.52C237.406 207.887 238.234 209.224 239.436 209.507Z" fill="#7B9F6E"/>
<path d="M270.108 215.728C271.309 216.011 272.429 215.132 272.609 213.765C272.789 212.398 271.96 211.061 270.759 210.778C269.557 210.496 268.438 211.375 268.258 212.742C268.078 214.109 268.906 215.446 270.108 215.728Z" fill="#7B9F6E"/>
<path d="M300.779 221.951C301.98 222.234 303.1 221.354 303.28 219.987C303.46 218.62 302.632 217.283 301.43 217.001C300.229 216.718 299.109 217.597 298.929 218.964C298.749 220.331 299.578 221.669 300.779 221.951Z" fill="#7B9F6E"/>
<path d="M331.451 228.173C332.652 228.455 333.772 227.576 333.952 226.209C334.132 224.842 333.304 223.505 332.102 223.222C330.901 222.94 329.781 223.819 329.601 225.186C329.421 226.553 330.249 227.89 331.451 228.173Z" fill="#7B9F6E"/>
<path d="M362.122 234.395C363.324 234.678 364.444 233.799 364.623 232.432C364.803 231.065 363.975 229.728 362.774 229.445C361.572 229.163 360.452 230.042 360.272 231.409C360.093 232.776 360.921 234.113 362.122 234.395Z" fill="#7B9F6E"/>
<path d="M392.794 240.618C393.995 240.901 395.115 240.021 395.295 238.654C395.475 237.287 394.646 235.95 393.445 235.668C392.244 235.385 391.124 236.264 390.944 237.631C390.764 238.998 391.592 240.336 392.794 240.618Z" fill="#7B9F6E"/>
<path d="M423.466 246.84C424.667 247.122 425.787 246.243 425.967 244.876C426.147 243.509 425.318 242.172 424.117 241.889C422.915 241.607 421.796 242.486 421.616 243.853C421.436 245.22 422.264 246.557 423.466 246.84Z" fill="#7B9F6E"/>
<path d="M454.137 253.062C455.338 253.345 456.458 252.466 456.638 251.099C456.818 249.732 455.99 248.395 454.788 248.112C453.587 247.83 452.467 248.709 452.287 250.076C452.107 251.443 452.935 252.78 454.137 253.062Z" fill="#7B9F6E"/>
<path d="M49.7614 211.85C50.9629 212.133 52.0827 211.254 52.2626 209.887C52.4424 208.52 51.6143 207.183 50.4128 206.9C49.2113 206.618 48.0915 207.497 47.9116 208.864C47.7318 210.231 48.56 211.568 49.7614 211.85Z" fill="#7B9F6E"/>
<path d="M80.4328 218.072C81.6343 218.355 82.7541 217.476 82.934 216.109C83.1138 214.742 82.2856 213.404 81.0842 213.122C79.8827 212.839 78.7629 213.719 78.583 215.086C78.4032 216.453 79.2313 217.79 80.4328 218.072Z" fill="#7B9F6E"/>
<path d="M111.105 224.295C112.306 224.577 113.426 223.698 113.606 222.331C113.786 220.964 112.958 219.627 111.756 219.345C110.555 219.062 109.435 219.941 109.255 221.308C109.075 222.675 109.903 224.012 111.105 224.295Z" fill="#7B9F6E"/>
<path d="M141.776 230.517C142.978 230.8 144.097 229.921 144.277 228.554C144.457 227.187 143.629 225.85 142.427 225.567C141.226 225.285 140.106 226.164 139.926 227.531C139.746 228.898 140.575 230.235 141.776 230.517Z" fill="#7B9F6E"/>
<path d="M172.448 236.739C173.649 237.022 174.769 236.143 174.949 234.776C175.129 233.409 174.301 232.071 173.099 231.789C171.898 231.506 170.778 232.386 170.598 233.753C170.418 235.12 171.246 236.457 172.448 236.739Z" fill="#7B9F6E"/>
<path d="M203.119 242.962C204.321 243.244 205.441 242.365 205.62 240.998C205.8 239.631 204.972 238.294 203.771 238.012C202.569 237.729 201.449 238.608 201.27 239.975C201.09 241.342 201.918 242.679 203.119 242.962Z" fill="#7B9F6E"/>
<path d="M233.791 249.184C234.992 249.466 236.112 248.587 236.292 247.22C236.472 245.853 235.644 244.516 234.442 244.233C233.241 243.951 232.121 244.83 231.941 246.197C231.761 247.564 232.589 248.901 233.791 249.184Z" fill="#7B9F6E"/>
<path d="M264.463 255.406C265.664 255.689 266.784 254.81 266.964 253.443C267.144 252.076 266.315 250.738 265.114 250.456C263.912 250.173 262.793 251.053 262.613 252.42C262.433 253.787 263.261 255.124 264.463 255.406Z" fill="#7B9F6E"/>
<path d="M295.134 261.629C296.335 261.911 297.455 261.032 297.635 259.665C297.815 258.298 296.987 256.961 295.785 256.678C294.584 256.396 293.464 257.275 293.284 258.642C293.104 260.009 293.933 261.346 295.134 261.629Z" fill="#7B9F6E"/>
<path d="M325.806 267.85C327.007 268.133 328.127 267.254 328.307 265.887C328.487 264.52 327.659 263.183 326.457 262.9C325.256 262.618 324.136 263.497 323.956 264.864C323.776 266.231 324.604 267.568 325.806 267.85Z" fill="#7B9F6E"/>
<path d="M356.477 274.073C357.679 274.356 358.799 273.476 358.978 272.109C359.158 270.743 358.33 269.405 357.129 269.123C355.927 268.84 354.807 269.72 354.627 271.087C354.448 272.453 355.276 273.791 356.477 274.073Z" fill="#7B9F6E"/>
<path d="M387.149 280.296C388.35 280.578 389.47 279.699 389.65 278.332C389.83 276.965 389.001 275.628 387.8 275.345C386.599 275.063 385.479 275.942 385.299 277.309C385.119 278.676 385.947 280.013 387.149 280.296Z" fill="#7B9F6E"/>
<path d="M417.821 286.517C419.022 286.8 420.142 285.921 420.322 284.554C420.502 283.187 419.673 281.85 418.472 281.567C417.27 281.285 416.151 282.164 415.971 283.531C415.791 284.898 416.619 286.235 417.821 286.517Z" fill="#7B9F6E"/>
<path d="M448.492 292.74C449.693 293.023 450.813 292.143 450.993 290.776C451.173 289.409 450.345 288.072 449.143 287.79C447.942 287.507 446.822 288.386 446.642 289.753C446.462 291.12 447.29 292.458 448.492 292.74Z" fill="#7B9F6E"/>
<path d="M44.1164 251.527C45.3179 251.81 46.4377 250.931 46.6176 249.564C46.7974 248.197 45.9692 246.859 44.7678 246.577C43.5663 246.294 42.4465 247.174 42.2666 248.541C42.0868 249.908 42.9149 251.245 44.1164 251.527Z" fill="#7B9F6E"/>
<path d="M74.7878 257.75C75.9893 258.032 77.1091 257.153 77.2889 255.786C77.4688 254.419 76.6406 253.082 75.4391 252.8C74.2377 252.517 73.1179 253.396 72.938 254.763C72.7581 256.13 73.5863 257.467 74.7878 257.75Z" fill="#7B9F6E"/>
<path d="M105.46 263.973C106.661 264.255 107.781 263.376 107.961 262.009C108.141 260.642 107.312 259.305 106.111 259.022C104.91 258.74 103.79 259.619 103.61 260.986C103.43 262.353 104.258 263.69 105.46 263.973Z" fill="#7B9F6E"/>
<path d="M136.131 270.194C137.333 270.477 138.452 269.598 138.632 268.231C138.812 266.864 137.984 265.526 136.782 265.244C135.581 264.961 134.461 265.841 134.281 267.208C134.101 268.575 134.93 269.912 136.131 270.194Z" fill="#7B9F6E"/>
<path d="M166.803 276.417C168.004 276.699 169.124 275.82 169.304 274.453C169.484 273.086 168.656 271.749 167.454 271.467C166.253 271.184 165.133 272.063 164.953 273.43C164.773 274.797 165.601 276.134 166.803 276.417Z" fill="#7B9F6E"/>
<path d="M197.474 282.64C198.676 282.922 199.796 282.043 199.975 280.676C200.155 279.309 199.327 277.972 198.126 277.689C196.924 277.407 195.804 278.286 195.625 279.653C195.445 281.02 196.273 282.357 197.474 282.64Z" fill="#7B9F6E"/>
<path d="M228.146 288.861C229.347 289.144 230.467 288.265 230.647 286.898C230.827 285.531 229.999 284.193 228.797 283.911C227.596 283.628 226.476 284.508 226.296 285.875C226.116 287.242 226.944 288.579 228.146 288.861Z" fill="#7B9F6E"/>
<path d="M258.818 295.084C260.019 295.366 261.139 294.487 261.319 293.12C261.499 291.753 260.67 290.416 259.469 290.134C258.267 289.851 257.148 290.73 256.968 292.097C256.788 293.464 257.616 294.801 258.818 295.084Z" fill="#7B9F6E"/>
<path d="M289.489 301.307C290.69 301.589 291.81 300.71 291.99 299.343C292.17 297.976 291.342 296.639 290.14 296.356C288.939 296.074 287.819 296.953 287.639 298.32C287.459 299.687 288.287 301.024 289.489 301.307Z" fill="#7B9F6E"/>
<path d="M320.161 307.528C321.362 307.811 322.482 306.932 322.662 305.565C322.842 304.198 322.014 302.86 320.812 302.578C319.611 302.295 318.491 303.175 318.311 304.542C318.131 305.909 318.959 307.246 320.161 307.528Z" fill="#7B9F6E"/>
<path d="M350.832 313.751C352.034 314.033 353.154 313.154 353.333 311.787C353.513 310.42 352.685 309.083 351.484 308.801C350.282 308.518 349.162 309.397 348.982 310.764C348.803 312.131 349.631 313.468 350.832 313.751Z" fill="#7B9F6E"/>
<path d="M381.504 319.973C382.705 320.255 383.825 319.376 384.005 318.009C384.185 316.642 383.356 315.305 382.155 315.022C380.953 314.74 379.834 315.619 379.654 316.986C379.474 318.353 380.302 319.69 381.504 319.973Z" fill="#7B9F6E"/>
<path d="M412.176 326.195C413.377 326.478 414.497 325.599 414.677 324.232C414.857 322.865 414.028 321.527 412.827 321.245C411.625 320.962 410.506 321.842 410.326 323.209C410.146 324.576 410.974 325.913 412.176 326.195Z" fill="#7B9F6E"/>
<path d="M442.847 332.418C444.048 332.7 445.168 331.821 445.348 330.454C445.528 329.087 444.7 327.75 443.498 327.468C442.297 327.185 441.177 328.064 440.997 329.431C440.817 330.798 441.645 332.135 442.847 332.418Z" fill="#7B9F6E"/>
<path d="M38.4714 291.205C39.6729 291.487 40.7927 290.608 40.9725 289.241C41.1524 287.874 40.3242 286.537 39.1227 286.255C37.9213 285.972 36.8015 286.851 36.6216 288.218C36.4417 289.585 37.2699 290.922 38.4714 291.205Z" fill="#7B9F6E"/>
<path d="M69.1428 297.428C70.3443 297.71 71.4641 296.831 71.6439 295.464C71.8238 294.097 70.9956 292.76 69.7941 292.477C68.5926 292.195 67.4728 293.074 67.293 294.441C67.1131 295.808 67.9413 297.145 69.1428 297.428Z" fill="#7B9F6E"/>
<path d="M99.8147 303.65C101.016 303.933 102.136 303.054 102.316 301.687C102.496 300.32 101.667 298.982 100.466 298.7C99.2645 298.417 98.1447 299.297 97.9649 300.664C97.785 302.031 98.6132 303.368 99.8147 303.65Z" fill="#7B9F6E"/>
<path d="M130.486 309.872C131.688 310.154 132.807 309.275 132.987 307.908C133.167 306.541 132.339 305.204 131.137 304.922C129.936 304.639 128.816 305.518 128.636 306.885C128.456 308.252 129.285 309.589 130.486 309.872Z" fill="#7B9F6E"/>
<path d="M161.158 316.095C162.359 316.377 163.479 315.498 163.659 314.131C163.839 312.764 163.011 311.427 161.809 311.144C160.608 310.862 159.488 311.741 159.308 313.108C159.128 314.475 159.956 315.812 161.158 316.095Z" fill="#7B9F6E"/>
<path d="M191.829 322.317C193.031 322.6 194.151 321.721 194.33 320.354C194.51 318.987 193.682 317.649 192.481 317.367C191.279 317.084 190.159 317.964 189.98 319.331C189.8 320.698 190.628 322.035 191.829 322.317Z" fill="#7B9F6E"/>
<path d="M222.501 328.539C223.702 328.821 224.822 327.942 225.002 326.575C225.182 325.208 224.354 323.871 223.152 323.589C221.951 323.306 220.831 324.185 220.651 325.552C220.471 326.919 221.299 328.256 222.501 328.539Z" fill="#7B9F6E"/>
<path d="M253.173 334.762C254.374 335.044 255.494 334.165 255.674 332.798C255.854 331.431 255.025 330.094 253.824 329.811C252.622 329.529 251.503 330.408 251.323 331.775C251.143 333.142 251.971 334.479 253.173 334.762Z" fill="#7B9F6E"/>
<path d="M283.844 340.984C285.045 341.267 286.165 340.388 286.345 339.021C286.525 337.654 285.697 336.316 284.495 336.034C283.294 335.751 282.174 336.631 281.994 337.998C281.814 339.365 282.642 340.702 283.844 340.984Z" fill="#7B9F6E"/>
<path d="M314.516 347.206C315.717 347.488 316.837 346.609 317.017 345.242C317.197 343.875 316.369 342.538 315.167 342.256C313.966 341.973 312.846 342.852 312.666 344.219C312.486 345.586 313.314 346.923 314.516 347.206Z" fill="#7B9F6E"/>
<path d="M345.187 353.429C346.389 353.711 347.508 352.832 347.688 351.465C347.868 350.098 347.04 348.761 345.839 348.478C344.637 348.196 343.517 349.075 343.337 350.442C343.158 351.809 343.986 353.146 345.187 353.429Z" fill="#7B9F6E"/>
<path d="M375.859 359.651C377.06 359.934 378.18 359.055 378.36 357.688C378.54 356.321 377.711 354.983 376.51 354.701C375.308 354.418 374.189 355.298 374.009 356.665C373.829 358.032 374.657 359.369 375.859 359.651Z" fill="#7B9F6E"/>
<path d="M406.53 365.873C407.732 366.155 408.852 365.276 409.032 363.909C409.212 362.542 408.383 361.205 407.182 360.923C405.98 360.64 404.861 361.519 404.681 362.886C404.501 364.253 405.329 365.59 406.53 365.873Z" fill="#7B9F6E"/>
<path d="M437.202 372.096C438.403 372.378 439.523 371.499 439.703 370.132C439.883 368.765 439.055 367.428 437.853 367.145C436.652 366.863 435.532 367.742 435.352 369.109C435.172 370.476 436 371.813 437.202 372.096Z" fill="#7B9F6E"/>
<path d="M32.8264 330.883C34.0279 331.165 35.1477 330.286 35.3275 328.919C35.5074 327.552 34.6792 326.215 33.4777 325.932C32.2762 325.65 31.1564 326.529 30.9766 327.896C30.7967 329.263 31.6249 330.6 32.8264 330.883Z" fill="#7B9F6E"/>
<path d="M63.4978 337.105C64.6992 337.388 65.819 336.509 65.9989 335.142C66.1788 333.775 65.3506 332.438 64.1491 332.155C62.9476 331.873 61.8278 332.752 61.648 334.119C61.4681 335.486 62.2963 336.823 63.4978 337.105Z" fill="#7B9F6E"/>
<path d="M94.1696 343.328C95.3711 343.611 96.4909 342.731 96.6708 341.364C96.8506 339.997 96.0225 338.66 94.821 338.378C93.6195 338.095 92.4997 338.974 92.3198 340.341C92.14 341.708 92.9682 343.046 94.1696 343.328Z" fill="#7B9F6E"/>
<path d="M124.841 349.55C126.043 349.832 127.162 348.953 127.342 347.586C127.522 346.219 126.694 344.882 125.492 344.599C124.291 344.317 123.171 345.196 122.991 346.563C122.811 347.93 123.64 349.267 124.841 349.55Z" fill="#7B9F6E"/>
<path d="M155.512 355.772C156.714 356.055 157.834 355.176 158.014 353.809C158.193 352.442 157.365 351.105 156.164 350.822C154.962 350.54 153.842 351.419 153.663 352.786C153.483 354.153 154.311 355.49 155.512 355.772Z" fill="#7B9F6E"/>
<path d="M186.184 361.994C187.386 362.277 188.506 361.397 188.685 360.03C188.865 358.663 188.037 357.326 186.836 357.044C185.634 356.761 184.514 357.64 184.334 359.007C184.155 360.374 184.983 361.712 186.184 361.994Z" fill="#7B9F6E"/>
<path d="M216.856 368.217C218.057 368.499 219.177 367.62 219.357 366.253C219.537 364.886 218.709 363.549 217.507 363.266C216.306 362.984 215.186 363.863 215.006 365.23C214.826 366.597 215.654 367.934 216.856 368.217Z" fill="#7B9F6E"/>
<path d="M247.528 374.439C248.729 374.722 249.849 373.843 250.029 372.476C250.209 371.109 249.38 369.772 248.179 369.489C246.977 369.207 245.858 370.086 245.678 371.453C245.498 372.82 246.326 374.157 247.528 374.439Z" fill="#7B9F6E"/>
<path d="M278.199 380.661C279.4 380.944 280.52 380.064 280.7 378.697C280.88 377.33 280.052 375.993 278.85 375.711C277.649 375.428 276.529 376.307 276.349 377.674C276.169 379.041 276.997 380.379 278.199 380.661Z" fill="#7B9F6E"/>
<path d="M308.871 386.884C310.072 387.166 311.192 386.287 311.372 384.92C311.552 383.553 310.724 382.216 309.522 381.933C308.321 381.651 307.201 382.53 307.021 383.897C306.841 385.264 307.669 386.601 308.871 386.884Z" fill="#7B9F6E"/>
<path d="M339.542 393.106C340.744 393.389 341.863 392.51 342.043 391.143C342.223 389.776 341.395 388.439 340.194 388.156C338.992 387.874 337.872 388.753 337.692 390.12C337.513 391.487 338.341 392.824 339.542 393.106Z" fill="#7B9F6E"/>
<path d="M370.214 399.328C371.415 399.611 372.535 398.731 372.715 397.364C372.895 395.997 372.066 394.66 370.865 394.378C369.663 394.095 368.544 394.974 368.364 396.341C368.184 397.708 369.012 399.046 370.214 399.328Z" fill="#7B9F6E"/>
<path d="M400.885 405.551C402.087 405.833 403.207 404.954 403.387 403.587C403.566 402.22 402.738 400.883 401.537 400.6C400.335 400.318 399.216 401.197 399.036 402.564C398.856 403.931 399.684 405.268 400.885 405.551Z" fill="#7B9F6E"/>
<path d="M431.557 411.773C432.758 412.056 433.878 411.177 434.058 409.81C434.238 408.443 433.41 407.106 432.208 406.823C431.007 406.541 429.887 407.42 429.707 408.787C429.527 410.154 430.355 411.491 431.557 411.773Z" fill="#7B9F6E"/>
<path d="M27.1814 370.56C28.3828 370.843 29.5026 369.964 29.6825 368.597C29.8624 367.23 29.0342 365.893 27.8327 365.61C26.6312 365.328 25.5114 366.207 25.3316 367.574C25.1517 368.941 25.9799 370.278 27.1814 370.56Z" fill="#7B9F6E"/>
<path d="M57.8527 376.783C59.0542 377.066 60.174 376.186 60.3539 374.819C60.5338 373.452 59.7056 372.115 58.5041 371.833C57.3026 371.55 56.1828 372.429 56.0029 373.796C55.8231 375.163 56.6513 376.501 57.8527 376.783Z" fill="#7B9F6E"/>
<path d="M88.5246 383.005C89.7261 383.287 90.8459 382.408 91.0258 381.041C91.2056 379.674 90.3774 378.337 89.176 378.054C87.9745 377.772 86.8547 378.651 86.6748 380.018C86.495 381.385 87.3231 382.722 88.5246 383.005Z" fill="#7B9F6E"/>
<path d="M119.196 389.227C120.397 389.51 121.517 388.631 121.697 387.264C121.877 385.897 121.049 384.56 119.847 384.277C118.646 383.995 117.526 384.874 117.346 386.241C117.166 387.608 117.995 388.945 119.196 389.227Z" fill="#7B9F6E"/>
<path d="M149.867 395.45C151.069 395.733 152.189 394.853 152.369 393.486C152.548 392.119 151.72 390.782 150.519 390.5C149.317 390.217 148.197 391.096 148.018 392.463C147.838 393.83 148.666 395.168 149.867 395.45Z" fill="#7B9F6E"/>
<path d="M180.539 401.672C181.741 401.954 182.861 401.075 183.04 399.708C183.22 398.341 182.392 397.004 181.191 396.721C179.989 396.439 178.869 397.318 178.689 398.685C178.51 400.052 179.338 401.389 180.539 401.672Z" fill="#7B9F6E"/>
<path d="M211.211 407.894C212.412 408.177 213.532 407.298 213.712 405.931C213.892 404.564 213.063 403.227 211.862 402.944C210.661 402.662 209.541 403.541 209.361 404.908C209.181 406.275 210.009 407.612 211.211 407.894Z" fill="#7B9F6E"/>
<path d="M241.883 414.117C243.084 414.4 244.204 413.52 244.384 412.153C244.564 410.786 243.735 409.449 242.534 409.167C241.332 408.884 240.213 409.763 240.033 411.13C239.853 412.497 240.681 413.835 241.883 414.117Z" fill="#7B9F6E"/>
<path d="M272.554 420.339C273.755 420.621 274.875 419.742 275.055 418.375C275.235 417.008 274.407 415.671 273.205 415.388C272.004 415.106 270.884 415.985 270.704 417.352C270.524 418.719 271.352 420.056 272.554 420.339Z" fill="#7B9F6E"/>
<path d="M303.226 426.561C304.427 426.844 305.547 425.965 305.727 424.598C305.907 423.231 305.079 421.894 303.877 421.611C302.676 421.329 301.556 422.208 301.376 423.575C301.196 424.942 302.024 426.279 303.226 426.561Z" fill="#7B9F6E"/>
<path d="M333.897 432.784C335.099 433.067 336.218 432.187 336.398 430.82C336.578 429.453 335.75 428.116 334.549 427.834C333.347 427.551 332.227 428.43 332.047 429.797C331.868 431.164 332.696 432.502 333.897 432.784Z" fill="#7B9F6E"/>
<path d="M364.569 439.006C365.77 439.288 366.89 438.409 367.07 437.042C367.25 435.675 366.421 434.338 365.22 434.055C364.018 433.773 362.899 434.652 362.719 436.019C362.539 437.386 363.367 438.723 364.569 439.006Z" fill="#7B9F6E"/>
<path d="M395.24 445.228C396.442 445.511 397.562 444.632 397.742 443.265C397.921 441.898 397.093 440.561 395.892 440.278C394.69 439.996 393.57 440.875 393.391 442.242C393.211 443.609 394.039 444.946 395.24 445.228Z" fill="#7B9F6E"/>
<path d="M425.912 451.451C427.113 451.734 428.233 450.854 428.413 449.487C428.593 448.12 427.765 446.783 426.563 446.501C425.362 446.218 424.242 447.097 424.062 448.464C423.882 449.831 424.71 451.169 425.912 451.451Z" fill="#7B9F6E"/>
<path d="M21.5363 410.238C22.7378 410.521 23.8576 409.642 24.0375 408.275C24.2173 406.908 23.3892 405.57 22.1877 405.288C20.9862 405.005 19.8664 405.885 19.6865 407.252C19.5067 408.619 20.3349 409.956 21.5363 410.238Z" fill="#7B9F6E"/>
<path d="M52.2077 416.461C53.4092 416.743 54.529 415.864 54.7089 414.497C54.8887 413.13 54.0605 411.793 52.8591 411.511C51.6576 411.228 50.5378 412.107 50.3579 413.474C50.1781 414.841 51.0062 416.178 52.2077 416.461Z" fill="#7B9F6E"/>
<path d="M82.8796 422.683C84.0811 422.965 85.2009 422.086 85.3807 420.719C85.5606 419.352 84.7324 418.015 83.5309 417.732C82.3295 417.45 81.2097 418.329 81.0298 419.696C80.8499 421.063 81.6781 422.4 82.8796 422.683Z" fill="#7B9F6E"/>
<path d="M113.551 428.905C114.752 429.188 115.872 428.309 116.052 426.942C116.232 425.575 115.404 424.237 114.202 423.955C113.001 423.672 111.881 424.552 111.701 425.919C111.521 427.286 112.35 428.623 113.551 428.905Z" fill="#7B9F6E"/>
<path d="M144.222 435.128C145.424 435.41 146.544 434.531 146.724 433.164C146.903 431.797 146.075 430.46 144.874 430.178C143.672 429.895 142.552 430.774 142.373 432.141C142.193 433.508 143.021 434.845 144.222 435.128Z" fill="#7B9F6E"/>
<path d="M174.894 441.35C176.096 441.632 177.216 440.753 177.395 439.386C177.575 438.019 176.747 436.682 175.546 436.399C174.344 436.117 173.224 436.996 173.044 438.363C172.865 439.73 173.693 441.067 174.894 441.35Z" fill="#7B9F6E"/>
<path d="M205.566 447.572C206.767 447.855 207.887 446.976 208.067 445.609C208.247 444.242 207.418 442.904 206.217 442.622C205.016 442.339 203.896 443.219 203.716 444.586C203.536 445.953 204.364 447.29 205.566 447.572Z" fill="#7B9F6E"/>
<path d="M236.237 453.795C237.438 454.077 238.558 453.198 238.738 451.831C238.918 450.464 238.09 449.127 236.888 448.845C235.687 448.562 234.567 449.441 234.387 450.808C234.207 452.175 235.036 453.512 236.237 453.795Z" fill="#7B9F6E"/>
<path d="M266.909 460.016C268.11 460.299 269.23 459.42 269.41 458.053C269.59 456.686 268.762 455.349 267.56 455.066C266.359 454.784 265.239 455.663 265.059 457.03C264.879 458.397 265.707 459.734 266.909 460.016Z" fill="#7B9F6E"/>
<path d="M297.581 466.239C298.782 466.522 299.902 465.643 300.082 464.276C300.262 462.909 299.434 461.571 298.232 461.289C297.031 461.006 295.911 461.886 295.731 463.253C295.551 464.62 296.379 465.957 297.581 466.239Z" fill="#7B9F6E"/>
<path d="M328.252 472.462C329.454 472.744 330.573 471.865 330.753 470.498C330.933 469.131 330.105 467.794 328.904 467.512C327.702 467.229 326.582 468.108 326.402 469.475C326.222 470.842 327.051 472.179 328.252 472.462Z" fill="#7B9F6E"/>
<path d="M358.924 478.683C360.125 478.966 361.245 478.087 361.425 476.72C361.605 475.353 360.776 474.016 359.575 473.733C358.373 473.451 357.254 474.33 357.074 475.697C356.894 477.064 357.722 478.401 358.924 478.683Z" fill="#7B9F6E"/>
<path d="M389.595 484.906C390.797 485.189 391.917 484.31 392.097 482.943C392.276 481.576 391.448 480.238 390.247 479.956C389.045 479.673 387.925 480.553 387.746 481.92C387.566 483.287 388.394 484.624 389.595 484.906Z" fill="#7B9F6E"/>
<path d="M420.267 491.128C421.468 491.41 422.588 490.531 422.768 489.164C422.948 487.797 422.12 486.46 420.918 486.178C419.717 485.895 418.597 486.774 418.417 488.141C418.237 489.508 419.065 490.845 420.267 491.128Z" fill="#7B9F6E"/>
<path d="M15.8913 449.916C17.0928 450.198 18.2126 449.319 18.3925 447.952C18.5723 446.585 17.7441 445.248 16.5427 444.966C15.3412 444.683 14.2214 445.562 14.0415 446.929C13.8617 448.296 14.6898 449.633 15.8913 449.916Z" fill="#7B9F6E"/>
<path d="M46.5627 456.139C47.7642 456.421 48.884 455.542 49.0639 454.175C49.2437 452.808 48.4155 451.471 47.214 451.188C46.0126 450.906 44.8928 451.785 44.7129 453.152C44.533 454.519 45.3612 455.856 46.5627 456.139Z" fill="#7B9F6E"/>
<path d="M77.2346 462.36C78.4361 462.643 79.5559 461.764 79.7357 460.397C79.9156 459.03 79.0874 457.692 77.8859 457.41C76.6844 457.127 75.5646 458.007 75.3848 459.374C75.2049 460.741 76.0331 462.078 77.2346 462.36Z" fill="#7B9F6E"/>
<path d="M107.906 468.583C109.107 468.865 110.227 467.986 110.407 466.619C110.587 465.252 109.759 463.915 108.557 463.633C107.356 463.35 106.236 464.229 106.056 465.596C105.876 466.963 106.704 468.3 107.906 468.583Z" fill="#7B9F6E"/>
<path d="M138.577 474.805C139.779 475.087 140.899 474.208 141.078 472.841C141.258 471.474 140.43 470.137 139.229 469.854C138.027 469.572 136.907 470.451 136.728 471.818C136.548 473.185 137.376 474.522 138.577 474.805Z" fill="#7B9F6E"/>
<path d="M169.249 481.027C170.451 481.31 171.571 480.431 171.75 479.064C171.93 477.697 171.102 476.359 169.901 476.077C168.699 475.794 167.579 476.674 167.399 478.041C167.22 479.408 168.048 480.745 169.249 481.027Z" fill="#7B9F6E"/>
<path d="M199.921 487.25C201.122 487.532 202.242 486.653 202.422 485.286C202.602 483.919 201.773 482.582 200.572 482.3C199.37 482.017 198.251 482.896 198.071 484.263C197.891 485.63 198.719 486.967 199.921 487.25Z" fill="#7B9F6E"/>
<path d="M230.592 493.472C231.793 493.754 232.913 492.875 233.093 491.508C233.273 490.141 232.445 488.804 231.243 488.521C230.042 488.239 228.922 489.118 228.742 490.485C228.562 491.852 229.391 493.189 230.592 493.472Z" fill="#7B9F6E"/>
<path d="M261.264 499.694C262.465 499.977 263.585 499.098 263.765 497.731C263.945 496.364 263.117 495.026 261.915 494.744C260.714 494.461 259.594 495.341 259.414 496.708C259.234 498.075 260.062 499.412 261.264 499.694Z" fill="#7B9F6E"/>
<path d="M291.935 505.917C293.137 506.199 294.257 505.32 294.436 503.953C294.616 502.586 293.788 501.249 292.587 500.967C291.385 500.684 290.265 501.563 290.085 502.93C289.906 504.297 290.734 505.634 291.935 505.917Z" fill="#7B9F6E"/>
<path d="M322.607 512.139C323.809 512.421 324.928 511.542 325.108 510.175C325.288 508.808 324.46 507.471 323.258 507.188C322.057 506.906 320.937 507.785 320.757 509.152C320.577 510.519 321.406 511.856 322.607 512.139Z" fill="#7B9F6E"/>
<path d="M353.279 518.361C354.48 518.644 355.6 517.765 355.78 516.398C355.96 515.031 355.131 513.693 353.93 513.411C352.728 513.128 351.609 514.008 351.429 515.375C351.249 516.742 352.077 518.079 353.279 518.361Z" fill="#7B9F6E"/>
<path d="M383.95 524.584C385.152 524.866 386.272 523.987 386.452 522.62C386.631 521.253 385.803 519.916 384.602 519.634C383.4 519.351 382.28 520.23 382.101 521.597C381.921 522.964 382.749 524.301 383.95 524.584Z" fill="#7B9F6E"/>
<path d="M414.622 530.806C415.823 531.088 416.943 530.209 417.123 528.842C417.303 527.475 416.475 526.138 415.273 525.855C414.072 525.573 412.952 526.452 412.772 527.819C412.592 529.186 413.42 530.523 414.622 530.806Z" fill="#7B9F6E"/>
<path d="M10.2463 489.594C11.4478 489.876 12.5676 488.997 12.7474 487.63C12.9273 486.263 12.0991 484.926 10.8976 484.643C9.69616 484.361 8.57636 485.24 8.3965 486.607C8.21663 487.974 9.04482 489.311 10.2463 489.594Z" fill="#7B9F6E"/>
<path d="M40.9177 495.816C42.1192 496.099 43.239 495.22 43.4188 493.853C43.5987 492.486 42.7705 491.148 41.569 490.866C40.3675 490.583 39.2477 491.463 39.0679 492.83C38.888 494.197 39.7162 495.534 40.9177 495.816Z" fill="#7B9F6E"/>
<path d="M71.5896 502.038C72.791 502.321 73.9108 501.441 74.0907 500.074C74.2706 498.707 73.4424 497.37 72.2409 497.088C71.0394 496.805 69.9196 497.684 69.7398 499.051C69.5599 500.418 70.3881 501.756 71.5896 502.038Z" fill="#7B9F6E"/>
<path d="M102.261 508.261C103.462 508.543 104.582 507.664 104.762 506.297C104.942 504.93 104.114 503.593 102.912 503.31C101.711 503.028 100.591 503.907 100.411 505.274C100.231 506.641 101.059 507.978 102.261 508.261Z" fill="#7B9F6E"/>
<path d="M132.933 514.482C134.134 514.765 135.254 513.886 135.434 512.519C135.614 511.152 134.786 509.814 133.584 509.532C132.383 509.25 131.263 510.129 131.083 511.496C130.903 512.863 131.731 514.2 132.933 514.482Z" fill="#7B9F6E"/>
<path d="M163.604 520.705C164.806 520.988 165.925 520.108 166.105 518.741C166.285 517.374 165.457 516.037 164.256 515.755C163.054 515.472 161.934 516.351 161.754 517.718C161.575 519.085 162.403 520.423 163.604 520.705Z" fill="#7B9F6E"/>
<path d="M194.276 526.927C195.477 527.209 196.597 526.33 196.777 524.963C196.957 523.596 196.128 522.259 194.927 521.976C193.725 521.694 192.606 522.573 192.426 523.94C192.246 525.307 193.074 526.644 194.276 526.927Z" fill="#7B9F6E"/>
<path d="M224.947 533.149C226.148 533.432 227.268 532.553 227.448 531.186C227.628 529.819 226.8 528.481 225.598 528.199C224.397 527.917 223.277 528.796 223.097 530.163C222.917 531.53 223.745 532.867 224.947 533.149Z" fill="#7B9F6E"/>
<path d="M255.619 539.372C256.82 539.654 257.94 538.775 258.12 537.408C258.3 536.041 257.472 534.704 256.27 534.422C255.069 534.139 253.949 535.018 253.769 536.385C253.589 537.752 254.417 539.09 255.619 539.372Z" fill="#7B9F6E"/>
<path d="M286.291 545.595C287.492 545.877 288.612 544.998 288.792 543.631C288.972 542.264 288.144 540.927 286.942 540.644C285.741 540.362 284.621 541.241 284.441 542.608C284.261 543.975 285.089 545.312 286.291 545.595Z" fill="#7B9F6E"/>
<path d="M316.962 551.816C318.164 552.099 319.283 551.22 319.463 549.853C319.643 548.486 318.815 547.148 317.613 546.866C316.412 546.584 315.292 547.463 315.112 548.83C314.932 550.197 315.761 551.534 316.962 551.816Z" fill="#7B9F6E"/>
<path d="M347.634 558.039C348.835 558.321 349.955 557.442 350.135 556.075C350.314 554.708 349.486 553.371 348.285 553.089C347.083 552.806 345.964 553.685 345.784 555.052C345.604 556.419 346.432 557.757 347.634 558.039Z" fill="#7B9F6E"/>
<path d="M378.305 564.262C379.507 564.544 380.627 563.665 380.807 562.298C380.986 560.931 380.158 559.594 378.957 559.311C377.755 559.029 376.635 559.908 376.456 561.275C376.276 562.642 377.104 563.979 378.305 564.262Z" fill="#7B9F6E"/>
<path d="M408.977 570.483C410.178 570.766 411.298 569.887 411.478 568.52C411.658 567.153 410.83 565.815 409.628 565.533C408.427 565.25 407.307 566.13 407.127 567.497C406.947 568.864 407.775 570.201 408.977 570.483Z" fill="#7B9F6E"/>
</g>
<defs>
<filter id="filter0_f_2013_186" x="0.37207" y="0.458984" width="486.871" height="578.077" filterUnits="userSpaceOnUse" color-interpolation-filters="sRGB">
<feFlood flood-opacity="0" result="BackgroundImageFix"/>
<feBlend mode="normal" in="SourceGraphic" in2="BackgroundImageFix" result="shape"/>
<feGaussianBlur stdDeviation="4" result="effect1_foregroundBlur_2013_186"/>
</filter>
</defs>
</svg>
