<svg width="30" height="30" viewBox="0 0 30 30" fill="none" xmlns="http://www.w3.org/2000/svg">
<g clip-path="url(#clip0_1_3246)">
<path d="M25.5 0H4.5C2.01472 0 0 2.01472 0 4.5V25.5C0 27.9853 2.01472 30 4.5 30H25.5C27.9853 30 30 27.9853 30 25.5V4.5C30 2.01472 27.9853 0 25.5 0Z" fill="#5281B8"/>
<path d="M16.0547 21.2697C16.3477 21.2111 16.875 21.0939 16.875 20.3908C16.875 20.3908 16.8164 18.6329 17.6367 18.3986C18.457 18.1642 19.5117 20.0978 20.625 20.8595C21.4453 21.3869 22.0898 21.3283 22.0898 21.3283L25.0781 21.2697C25.0781 21.2697 26.6016 21.1525 25.8984 19.922C25.8398 19.8048 25.3711 19.0431 23.6133 17.4611C21.7969 15.7033 22.0898 15.9962 24.2578 13.0079C25.6055 11.1915 26.1914 10.0783 26.0156 9.6681C25.7812 9.25795 24.8438 9.31654 24.8438 9.31654H21.5039C21.1523 9.31654 20.9766 9.37513 20.8008 9.6681C20.8008 9.6681 20.2734 11.1329 19.5703 12.3048C18.1055 14.8244 17.5195 14.9415 17.2266 14.7658C16.6992 14.4728 16.8164 13.3595 16.8164 12.5978C16.8164 9.96107 17.2266 9.02357 16.0547 8.7892C15.293 8.67201 12.5977 8.55482 11.7773 8.96498C11.3672 9.19935 11.1328 9.60951 11.3086 9.6681C11.4844 9.6681 12.0117 9.7267 12.3047 10.0783C12.7734 10.84 12.832 14.4728 12.1875 14.8244C11.3086 15.4689 9.08203 11.1915 8.55469 9.78529C8.4375 9.43373 8.26172 9.37513 7.85156 9.25795H4.6289C4.27734 9.25795 3.75 9.31654 3.98437 10.0197C5.5664 13.3009 8.84765 21.3283 14.7656 21.2697H16.0547Z" fill="white"/>
</g>
<defs>
<clipPath id="clip0_1_3246">
<rect width="30" height="30" fill="white"/>
</clipPath>
</defs>
</svg>
